<?xml version="1.0" encoding="utf-8"?>
<!-- Generator: Adobe Illustrator 18.0.0, SVG Export Plug-In . SVG Version: 6.00 Build 0)  -->
<!DOCTYPE svg PUBLIC "-//W3C//DTD SVG 1.1//EN" "http://www.w3.org/Graphics/SVG/1.1/DTD/svg11.dtd">
<svg version="1.1" id="Layer_1" xmlns="http://www.w3.org/2000/svg" xmlns:xlink="http://www.w3.org/1999/xlink" x="0px" y="0px"
	 viewBox="35 40 75 65" xml:space="preserve">
<g>
	<path fill="#333333" d="M51.9,86.3c-0.1,0-0.1,0-0.2,0c-7-1.2-12-7.2-12-14.3c0-8,6.5-14.5,14.5-14.5c1.6,0,3.2,0.3,4.7,0.8
		c2.6-9.7,11.5-16.7,21.7-16.7c12.4,0,22.5,10.1,22.5,22.4c0,7.8-3.9,14.9-10.5,19c-0.6,0.4-1.4,0.2-1.8-0.4
		c-0.4-0.6-0.2-1.4,0.4-1.8c5.8-3.6,9.3-9.9,9.3-16.7c0-10.9-8.9-19.8-19.8-19.8c-9.5,0-17.7,6.8-19.5,16.1
		c-0.1,0.4-0.3,0.7-0.7,0.9c-0.4,0.2-0.8,0.2-1.2,0c-1.6-0.8-3.3-1.1-5.1-1.1c-6.6,0-11.9,5.3-11.9,11.8c0,5.8,4.1,10.7,9.8,11.6
		c0.7,0.1,1.2,0.8,1.1,1.5C53,85.8,52.5,86.3,51.9,86.3z"/>
	<path fill="#333333" d="M56.2,89.5c-0.6-0.4-0.8-1.2-0.5-1.8l3.4-5.9c0.4-0.6,1.2-0.8,1.8-0.5c0.6,0.4,0.8,1.2,0.5,1.8L58,89.1
		C57.7,89.7,56.9,89.9,56.2,89.5z"/>
	<path fill="#333333" d="M64.7,89.5c-0.6-0.4-0.8-1.2-0.5-1.8l3.4-5.9c0.4-0.6,1.2-0.8,1.8-0.5c0.6,0.4,0.8,1.2,0.5,1.8l-3.4,5.9
		C66.1,89.7,65.3,89.9,64.7,89.5z"/>
	<path fill="#333333" d="M73.1,89.5c-0.6-0.4-0.8-1.2-0.5-1.8l3.4-5.9c0.4-0.6,1.2-0.8,1.8-0.5c0.6,0.4,0.8,1.2,0.5,1.8l-3.4,5.9
		C74.6,89.7,73.8,89.9,73.1,89.5z"/>
	<path fill="#333333" d="M81.6,89.5c-0.6-0.4-0.8-1.2-0.5-1.8l3.4-5.9c0.4-0.6,1.2-0.8,1.8-0.5c0.6,0.4,0.8,1.2,0.5,1.8l-3.4,5.9
		C83,89.7,82.2,89.9,81.6,89.5z"/>
	<path fill="#333333" d="M55.2,100.6c-0.6-0.4-0.8-1.2-0.5-1.8l3.4-5.9c0.4-0.6,1.2-0.8,1.8-0.5c0.6,0.4,0.8,1.2,0.5,1.8l-3.4,5.9
		C56.6,100.8,55.8,101,55.2,100.6z"/>
	<path fill="#333333" d="M63.6,100.6c-0.6-0.4-0.8-1.2-0.5-1.8l3.4-5.9c0.4-0.6,1.2-0.8,1.8-0.5c0.6,0.4,0.8,1.2,0.5,1.8l-3.4,5.9
		C65.1,100.8,64.3,101,63.6,100.6z"/>
	<path fill="#333333" d="M72.1,100.6c-0.6-0.4-0.8-1.2-0.5-1.8l3.4-5.9c0.4-0.6,1.2-0.8,1.8-0.5c0.6,0.4,0.8,1.2,0.5,1.8l-3.4,5.9
		C73.5,100.8,72.7,101,72.1,100.6z"/>
</g>
</svg>
