<?xml version="1.0" encoding="utf-8"?>
<!-- Generator: Adobe Illustrator 21.0.0, SVG Export Plug-In . SVG Version: 6.00 Build 0)  -->
<svg version="1.1" id="Layer_1" xmlns="http://www.w3.org/2000/svg" xmlns:xlink="http://www.w3.org/1999/xlink" x="0px" y="0px"
	 viewBox="0 0 932 1030" style="enable-background:new 0 0 932 1030;" xml:space="preserve">
<style type="text/css">
	.st0{fill:#FFFFFF;}
	.st1{fill:#DB2626;}
	.st2{fill:#E03834;}
	.st3{fill:#B82626;}
	.st4{fill:#A72121;}
</style>
<circle class="st0" cx="470.6" cy="572.4" r="447.1"/>
<path class="st1" d="M512.4,388.7c-3,9.9-5.6,20.3-7.9,31.2c-2.2,10.9-12.8,17.9-23.7,15.6c-10.9-2.2-17.9-12.8-15.6-23.7
	c21.6-105.4,78.2-179.4,167.1-236C545.6,216.8,427.9,316.4,410,413.2c-2.5,13.6-2.7,26.7-0.3,39.1c1.3,6.5-0.8,13-5,17.5
	c-41.2,48.8-26.7,83.4-53.6,139.2c-18.9,39.3-43.9,76.1-65.1,114.2c-2,3.5,2.3,11.3,9,20.1c11.8,15.4,32.8,33.1,49.8,42.6
	c3.8,1.2,52.4-41.7,127.7,2.1c-0.1-17.3,3.1-32.5,8.7-45.9c10.4-24.6,69.4-93.6,150.7-78.8c-30.6,15.6-47.3,23.4-59.1,34.5
	c78.3,34.4,123.7,59.4,177.6,129.1c61.3-67.3,98.8-156.7,98.8-254.9c0-44.7-7.8-87.7-22-127.5C735.5,401.6,616.6,420.9,512.4,388.7z
	"/>
<path class="st2" d="M499,715.7c102.1-13.4,187.1,28.3,251.3,111.2c50.8-55.7,85.2-126.7,95.5-205.3
	C721.8,563.5,579.4,605.5,499,715.7z"/>
<path class="st3" d="M387.2,559.7c-5.7,9.5-2.6,21.8,7,27.5c9.5,5.7,21.8,2.6,27.5-7c-10.6-25-7.8-44.2,6.7-69.4
	C405.6,525.5,400.1,538.1,387.2,559.7z"/>
<path class="st3" d="M666.7,201.9c25.9-17.8,75.9-40.7,106.5-53.5c17.7-8,14.8-34.5-4.6-38c-54.3-10-114.8,9.7-162.9,33.9
	c2.7-2.8,5.5-5.5,8.2-8.2c28.2-27.6,58.6-51.9,87.5-74.8c16.6-11.4,7.8-37.8-12.6-36.6C618.2,29,542.2,82.9,482.5,153.4
	C246.7,146.7,51.9,335.9,51.9,571.9c0,231.2,187.5,418.7,418.7,418.7c115.6,0,220.3-46.9,296.1-122.6
	c75.8-75.8,122.6-180.5,122.6-296.1C889.3,416.3,803.4,274.5,666.7,201.9z M572.7,120.7c-24.7,25.9-47.4,54.8-65.4,88
	c-16,13.1-31.2,27-45.6,41.9C490.5,202.5,529.3,156.1,572.7,120.7z M470.6,950.4c-209,0-378.5-169.4-378.5-378.5
	c0-201.5,158-367.8,359.1-378c-46.3,66-77.2,140-77.9,199.8c-4.7,18.4-6.7,37.6-4.5,56.5c-44.5,55.4-26.7,85.1-53.8,141.2
	c-18.5,38.4-43.2,74.8-64,112.2c-11.4,20.5-3.7,43.2,12.1,63.9c15.3,20.1,40.1,41,62.3,53.3c14.2,7.9,27.3,9.4,35.7,3
	c46.7-35.6,95.6,0.4,115.3,15c19.8,14.6,50.9,14.5,41.8-17.3c-7.8-27.3-6.6-48.2,0-64c5.2-12.2,13.9-21.9,24.3-29.3
	c78.8,35.1,124.2,54.7,179.2,126.9C654.7,914.4,566.9,950.4,470.6,950.4z M849,571.9c0,98.2-37.4,187.7-98.8,254.9
	c-53.9-69.7-99.3-94.7-177.6-129.1c11.9-11.1,28.6-18.9,59.1-34.5c-81.3-14.8-140.3,54.2-150.7,78.8c-5.6,13.3-8.8,28.6-8.7,45.9
	c-75.2-43.8-123.8-0.9-127.7-2.1c-17-9.5-38.1-27.2-49.8-42.6c-6.7-8.7-11-16.5-9-20.1c21.2-38.1,46.2-74.9,65.1-114.2
	c26.9-55.8,12.4-90.4,53.6-139.2c4.2-4.5,6.3-11,5-17.5c-2.4-12.4-2.2-25.5,0.3-39.1c17.9-96.8,135.6-196.4,222.4-237.3
	c-88.9,56.6-145.5,130.6-167.1,236c-2.2,10.9,4.8,21.5,15.6,23.7c10.9,2.2,21.5-4.8,23.7-15.6c2.2-10.9,4.9-21.2,7.9-31.2
	c104.2,32.3,223.1,12.9,314.6,55.7C841.3,484.2,849,527.2,849,571.9z M526.4,351c22.6-50.8,57.2-90.6,101.5-123.4
	c74.9,34.3,136.9,92.4,176,164.9C714.8,365.1,620.3,379.5,526.4,351z"/>
<path class="st4" d="M460.8,153.3c-11,13.7-21.4,27.8-31.1,42.3c7.1-0.8,14.2-1.3,21.4-1.7c9.8-14,20.3-27.5,31.3-40.6
	c-4-0.1-7.9-0.2-11.9-0.2C467.3,153.2,464.1,153.2,460.8,153.3z"/>
<path class="st4" d="M627.9,227.6c5.7,2.6,11.4,5.4,17,8.3c12.5-8.8,25.4-16.9,38.7-24.5c-5.5-3.3-11.2-6.4-16.8-9.5
	C653.4,209.9,640.4,218.4,627.9,227.6z"/>
<path class="st1" d="M461.8,250.5c14.4-14.8,29.6-28.8,45.6-41.9c18-33.2,40.6-62.1,65.4-88C529.3,156.1,490.5,202.5,461.8,250.5z"
	/>
</svg>
