<svg id="Layer_1" data-name="Layer 1" xmlns="http://www.w3.org/2000/svg" viewBox="0 0 317.06 39">
	<title>megyei_logo_capital_outline</title>
	<style type="text/css">
		.st1 {
			fill: black;
		}
	    .st2 {
			fill: #db2626;
		}
		.st3 {
			fill: black;
		}
	</style>
	<g>
	<path class="st1" d="M0,2H16.28c4,0,7.15,1.1,9.15,3.1a8,8,0,0,1,2.4,6v.1a8.14,8.14,0,0,1-4.6,7.55c4,1.55,6.55,3.9,6.55,8.6v.1c0,6.4-5.2,9.6-13.1,9.6H0ZM20.18,12.36c0-2.3-1.8-3.6-5-3.6H7.53v7.4h7.1c3.4,0,5.55-1.1,5.55-3.7Zm-3.75,10.2H7.53v7.7h9.15c3.4,0,5.45-1.2,5.45-3.8v-.1C22.13,24,20.38,22.56,16.43,22.56Z"/>
	<path class="st1" d="M45.53,1.76h7.1L67.63,37H59.58l-3.2-7.85H41.58L38.38,37H30.53Zm8.1,20.6L49,11,44.33,22.36Z"/>
	<path class="st2" d="M70.83,2h8.3l9.2,14.8L97.53,2h8.3V37H98.18V14.16l-9.85,15h-.2l-9.75-14.8V37H70.83Z"/>
	<path class="st2" d="M124,1.76h7.1l15,35.25h-8l-3.2-7.85h-14.8L116.88,37H109Zm8.1,20.6L127.48,11l-4.65,11.35Z"/>
	</g>
	<g class="st3">
		<path d="M176.86,11.28v0c0-1.74,1.44-2.67,3.54-2.67a8.79,8.79,0,0,1,2.54.35V8.64c0-1.49-.91-2.26-2.46-2.26A5.76,5.76,0,0,0,178,7l-.37-1a6.83,6.83,0,0,1,3-.69,3.63,3.63,0,0,1,2.67.91,3.27,3.27,0,0,1,.85,2.42v5.06h-1.18V12.43a3.63,3.63,0,0,1-3,1.42C178.41,13.86,176.86,13,176.86,11.28Zm6.1-.64v-.8a8.63,8.63,0,0,0-2.43-.35c-1.55,0-2.42.67-2.42,1.71v0c0,1,1,1.65,2.08,1.65A2.5,2.5,0,0,0,183,10.64Z"/>
	<path d="M191.75,2.48h4.77a4.11,4.11,0,0,1,2.93,1,2.49,2.49,0,0,1,.72,1.79v0a2.7,2.7,0,0,1-1.78,2.59c1.33.4,2.4,1.17,2.4,2.71v0c0,1.92-1.62,3.06-4.07,3.06h-5Zm7.14,3c0-1.1-.88-1.82-2.48-1.82H193V7.47h3.31c1.52,0,2.58-.69,2.58-2Zm-2.35,3.15H193v4h3.76c1.7,0,2.75-.75,2.75-2v0C199.52,9.29,198.49,8.59,196.54,8.59Z"/>
	<path d="M202.47,11.28v0c0-1.74,1.44-2.67,3.54-2.67a8.8,8.8,0,0,1,2.55.35V8.64c0-1.49-.91-2.26-2.47-2.26a5.77,5.77,0,0,0-2.51.61l-.37-1a6.83,6.83,0,0,1,3-.69,3.63,3.63,0,0,1,2.67.91,3.27,3.27,0,0,1,.85,2.42v5.06h-1.18V12.43a3.63,3.63,0,0,1-3,1.42C204,13.86,202.47,13,202.47,11.28Zm6.1-.64v-.8a8.64,8.64,0,0,0-2.43-.35c-1.55,0-2.42.67-2.42,1.71v0c0,1,1,1.65,2.08,1.65C207.32,12.88,208.57,12,208.57,10.64Z"/>
	<path d="M212.36,5.4h1.23V7.57A3.54,3.54,0,0,1,217,5.26V6.59h-.1c-1.81,0-3.28,1.3-3.28,3.79v3.3h-1.23Z"/>
	<path d="M217.82,11.28v0c0-1.74,1.44-2.67,3.54-2.67a8.8,8.8,0,0,1,2.55.35V8.64c0-1.49-.91-2.26-2.47-2.26a5.77,5.77,0,0,0-2.51.61l-.37-1a6.83,6.83,0,0,1,3-.69,3.63,3.63,0,0,1,2.67.91,3.27,3.27,0,0,1,.85,2.42v5.06H223.9V12.43a3.63,3.63,0,0,1-3,1.42C219.37,13.86,217.82,13,217.82,11.28Zm6.1-.64v-.8a8.64,8.64,0,0,0-2.43-.35c-1.55,0-2.42.67-2.42,1.71v0c0,1,1,1.65,2.08,1.65C222.67,12.88,223.92,12,223.92,10.64Z"/>
	<path d="M227.71,5.4h1.23V6.84a3.13,3.13,0,0,1,2.83-1.62,3,3,0,0,1,3.17,3.31v5.14h-1.23V8.85a2.21,2.21,0,0,0-2.29-2.5,2.43,2.43,0,0,0-2.48,2.59v4.74h-1.23Z"/>
	<path d="M243.52,5.4h1.31L241.35,14c-.7,1.71-1.5,2.34-2.75,2.34a3.76,3.76,0,0,1-1.76-.42l.42-1a2.58,2.58,0,0,0,1.3.3c.74,0,1.2-.38,1.7-1.55L236.49,5.4h1.36l3,6.9Z"/>
	<path d="M245.75,11.28v0c0-1.74,1.44-2.67,3.54-2.67a8.8,8.8,0,0,1,2.55.35V8.64c0-1.49-.91-2.26-2.47-2.26a5.77,5.77,0,0,0-2.51.61l-.37-1a6.83,6.83,0,0,1,3-.69,3.63,3.63,0,0,1,2.67.91A3.27,3.27,0,0,1,253,8.62v5.06h-1.18V12.43a3.63,3.63,0,0,1-3,1.42C247.3,13.86,245.75,13,245.75,11.28Zm6.1-.64v-.8a8.64,8.64,0,0,0-2.43-.35c-1.55,0-2.42.67-2.42,1.71v0c0,1,1,1.65,2.08,1.65C250.6,12.88,251.85,12,251.85,10.64Z"/>
	<path d="M260.44,5.4h1.23V6.8a3,3,0,0,1,2.67-1.57A2.81,2.81,0,0,1,267,6.88a3.3,3.3,0,0,1,2.91-1.65c1.9,0,3.07,1.28,3.07,3.33v5.12h-1.23V8.85c0-1.6-.8-2.5-2.15-2.5a2.31,2.31,0,0,0-2.27,2.56v4.77h-1.23V8.81c0-1.55-.82-2.46-2.13-2.46A2.4,2.4,0,0,0,261.67,9v4.72h-1.23Z"/>
	<path d="M275.14,9.57v0a4.08,4.08,0,0,1,4-4.31c2.45,0,3.86,2,3.86,4.37a3.1,3.1,0,0,1,0,.4h-6.56a2.89,2.89,0,0,0,2.91,2.8,3.42,3.42,0,0,0,2.61-1.17l.77.69a4.27,4.27,0,0,1-3.41,1.55A4.11,4.11,0,0,1,275.14,9.57Zm6.58-.48c-.13-1.5-1-2.82-2.64-2.82a2.85,2.85,0,0,0-2.69,2.82Z"/>
	<path d="M285,15.12l.56-1a5.29,5.29,0,0,0,3.18,1.06,2.72,2.72,0,0,0,3-2.95v-1A3.92,3.92,0,0,1,288.54,13a3.83,3.83,0,0,1-3.89-3.87v0a3.92,3.92,0,0,1,7.12-2.24V5.4H293v6.83a4,4,0,0,1-1.06,2.93,4.35,4.35,0,0,1-3.15,1.1A6.49,6.49,0,0,1,285,15.12Zm6.79-6v0a2.9,2.9,0,0,0-3-2.8,2.74,2.74,0,0,0-2.87,2.79v0A2.8,2.8,0,0,0,288.78,12,2.92,2.92,0,0,0,291.82,9.15Z"/>
	<path d="M301.95,5.4h1.31L299.79,14c-.7,1.71-1.5,2.34-2.75,2.34a3.76,3.76,0,0,1-1.76-.42l.42-1a2.58,2.58,0,0,0,1.3.3c.74,0,1.2-.38,1.7-1.55L294.92,5.4h1.36l3,6.9Z"/>
	<path d="M304.22,9.57v0a4.08,4.08,0,0,1,4-4.31c2.45,0,3.86,2,3.86,4.37a3.1,3.1,0,0,1,0,.4h-6.56a2.89,2.89,0,0,0,2.91,2.8A3.42,3.42,0,0,0,311,11.63l.77.69a4.27,4.27,0,0,1-3.41,1.55A4.11,4.11,0,0,1,304.22,9.57Zm6.58-.48c-.13-1.5-1-2.82-2.64-2.82a2.85,2.85,0,0,0-2.69,2.82Z"/>
	<path d="M314.23,2.23h1.41V3.6h-1.41Zm.08,3.17h1.23v8.28h-1.23Z"/>
	<path d="M177.48,23h1.23v4.85a3.13,3.13,0,0,1,2.83-1.62,3,3,0,0,1,3.17,3.31v5.14h-1.23V29.85a2.21,2.21,0,0,0-2.29-2.5,2.43,2.43,0,0,0-2.48,2.59v4.74h-1.23Z"/>
	<path d="M187.45,26.4h1.23v8.28h-1.23Zm1.63-3.57,1.28.59-1.82,1.73h-1Z"/>
	<path d="M191.54,26.4h1.23v2.16a3.54,3.54,0,0,1,3.38-2.31v1.33h-.1c-1.81,0-3.28,1.3-3.28,3.79v3.3h-1.23Z"/>
	<path d="M198,26.4h1.23v1.66a3.72,3.72,0,0,1,3.17-1.84,4,4,0,0,1,4,4.29v0a4.05,4.05,0,0,1-4,4.31,3.73,3.73,0,0,1-3.17-1.76v4.15H198Zm7.09,4.16v0a3,3,0,0,0-2.91-3.2,3.09,3.09,0,0,0-3,3.19v0a3.08,3.08,0,0,0,3,3.2A2.92,2.92,0,0,0,205.12,30.57Z"/>
	<path d="M208.14,30.58v0a4.31,4.31,0,0,1,8.63,0v0a4.3,4.3,0,0,1-4.34,4.32A4.24,4.24,0,0,1,208.14,30.58Zm7.36,0v0a3.13,3.13,0,0,0-3.07-3.23,3.05,3.05,0,0,0-3,3.2v0a3.1,3.1,0,0,0,3.06,3.22A3.05,3.05,0,0,0,215.5,30.58Z"/>
	<path d="M219,26.4h1.23v2.16a3.54,3.54,0,0,1,3.38-2.31v1.33h-.1c-1.81,0-3.28,1.3-3.28,3.79v3.3H219Z"/>
	<path d="M225.9,32.49v-5h-1.15V26.4h1.15v-2.5h1.23v2.5h2.63v1.09h-2.63v4.83a1.22,1.22,0,0,0,1.39,1.38,2.59,2.59,0,0,0,1.2-.29v1.06a3.1,3.1,0,0,1-1.49.35A2.11,2.11,0,0,1,225.9,32.49Z"/>
	<path d="M231.3,32.28v0c0-1.74,1.44-2.67,3.54-2.67a8.79,8.79,0,0,1,2.54.35v-.29c0-1.49-.91-2.26-2.46-2.26a5.76,5.76,0,0,0-2.51.61L232,27a6.83,6.83,0,0,1,3-.69,3.63,3.63,0,0,1,2.67.91,3.27,3.27,0,0,1,.85,2.42v5.06h-1.18V33.43a3.63,3.63,0,0,1-3,1.42C232.86,34.86,231.3,34,231.3,32.28Zm6.1-.64v-.8a8.63,8.63,0,0,0-2.43-.35c-1.55,0-2.42.67-2.42,1.71v0c0,1,1,1.65,2.08,1.65A2.5,2.5,0,0,0,237.4,31.64Zm-1.22-8.8,1.28.59-1.83,1.73h-1Z"/><path d="M241.3,23h1.23V34.68H241.3Z"/>
	</g>
	
</svg>