<svg xmlns="http://www.w3.org/2000/svg" viewBox="0 0 146.1 35.3"><defs><style>.cls-1{fill:#fff;}.cls-2{fill:#db2626;}</style></defs><title>Eszköz 1</title><g id="Réteg_2" data-name="Réteg 2"><g id="Layer_1" data-name="Layer 1"><path class="cls-1" d="M0,.2H16.3c4,0,7.2,1.1,9.2,3.1a8.14,8.14,0,0,1,2.4,6v.1A8.16,8.16,0,0,1,23.3,17c4,1.5,6.5,3.9,6.5,8.6v.1c0,6.4-5.2,9.6-13.1,9.6H0ZM20.2,10.6c0-2.3-1.8-3.6-5-3.6H7.5v7.4h7.1c3.4,0,5.6-1.1,5.6-3.8ZM16.4,20.8H7.5v7.7h9.2c3.4,0,5.5-1.2,5.5-3.8v-.1C22.1,22.2,20.4,20.8,16.4,20.8Z"/><path class="cls-1" d="M45.5,0h7.1l15,35.3H59.5l-3.2-7.9H41.6l-3.2,7.8H30.5Zm8.1,20.6L49,9.2,44.3,20.6Z"/><path class="cls-2" d="M70.8.2h8.3L88.3,15,97.5.2h8.3v35H98.1V12.4l-9.9,15H88L78.2,12.6V35.2H70.6V.2Z"/><path class="cls-2" d="M124,0h7.1l15,35.3h-8l-3.2-7.9H120.1l-3.2,7.9H109Zm8.1,20.6L127.5,9.2l-4.7,11.4Z"/></g></g></svg>