<?xml version="1.0" encoding="utf-8"?>
<!-- Generator: Adobe Illustrator 21.0.0, SVG Export Plug-In . SVG Version: 6.00 Build 0)  -->
<svg version="1.1" id="Layer_1" xmlns="http://www.w3.org/2000/svg" xmlns:xlink="http://www.w3.org/1999/xlink" x="0px" y="0px"
	 viewBox="0 0 932 970" style="enable-background:new 0 0 932 970;" xml:space="preserve">
<style type="text/css">
	.st0{fill:#FFFFFF;}
	.st1{fill:#DB2626;}
	.st2{fill:#E03834;}
	.st3{fill:#B82626;}
	.st4{fill:#A72121;}
</style>
<circle class="st0" cx="469" cy="496.7" r="447.1"/>
<path class="st1" d="M371.4,112.5c-91.9,65.6-122.6,196,9.1,240.3c22.8,7.7,18.6,6,39-5.9C359.4,281.7,331.2,197.5,371.4,112.5z"/>
<path class="st2" d="M371.3,112.7c-29.4,49.3-46,105.1-46,164.2c0,16.4,1.3,32.5,3.8,48.4c13.2,11,30.2,20.4,51.5,27.5
	c22.8,7.7,18.6,6,39-5.9C359.5,281.8,331.3,197.6,371.3,112.7z"/>
<path class="st1" d="M414.2,396.4c-11.7,8.2-33.9-1.4-46.5-5.6c-46.4-15.6-93.3-42.6-124.7-84.1c-22.9-30.3-37.5-67.9-37.5-113.8
	c-56,100.5-17.7,185.3,81,240.8c44.2,24.9,89.1,36.7,111.2,34.5c11-1.1,20.9,7,21.9,18c1.1,11-7,20.9-18,21.9
	c-9.5,0.9-21.8,0.1-35.9-2.4c-9.9,23.1-18.6,31.7-14.5,56.3l7.9,48c2.1,4.9,2.1,10.3,0.4,14.9l-27.1,93.7l90.2,19.7
	c67.8-63.4,129.7-152.9,221.9-179.3c-29.3,27-55.6,56.6-65.4,65.4c79.6,35,122.9,57.9,177.8,129.2c62.5-67.5,100.7-157.8,100.7-257
	c0-81.5-25.7-156.9-69.5-218.7C642.8,210.7,569.2,305.5,414.2,396.4z"/>
<path class="st2" d="M756.9,753.6c61.7-66.7,99.8-155.7,100.7-253.6c-126.7,0.6-240.4,47.4-318.8,121.6
	C634.5,636.2,730.1,727,756.9,753.6z"/>
<g>
	<path class="st3" d="M441.2,79.6c2.6-3,5.3-6,8.1-8.9c24.5-25.8,1.2-45.7-41.5-25.4c-43.5,20.6-75.9,44-99.4,69
		c-19.8,8.8-38.7,19.2-56.7,30.8c2-8.7,4.4-17.2,7.2-25.6c8.3-20.6-18.6-37.6-33.6-21c-42.8,47.7-71.1,98-81.3,147.3
		c-52.4,69.9-83.5,156.8-83.5,250.9c0,231.2,187.5,418.7,418.7,418.7c231.2,0,418.7-187.5,418.7-418.7
		C897.8,249.9,686,57.6,441.2,79.6z M410.6,124.3c120.6-22.1,244.4,15.3,332.5,101.1c-132-33.9-183.7,39.4-288,100.5
		C393.5,263.5,375.8,193.1,410.6,124.3z M371.4,112.5c-40.1,85-11.9,169.2,48.2,234.3c-20.4,12-16.2,13.6-39,5.9
		C248.8,308.5,279.4,178.2,371.4,112.5z M265.2,184.3c-7.3,21.5-9.9,43.1-9,64.4c-5.9-15-9.5-31.7-10.2-50.3
		C252.2,193.5,258.6,188.8,265.2,184.3z M479.1,875.1c-209,0-378.5-169.4-378.5-378.5c0-63.1,15.4-122.6,42.7-174.9
		c11.6,55.2,50.7,106.2,123.5,147.1c19.9,11.2,40.4,20.1,59.7,26.6c-12.7,29.8-22,36.4-16.7,68.1l9.5,55.9L287.1,731
		c-5.7,19.8,12.4,25.2,26.8,26.4L428,779.2c6.6,0.6,12.8-2.1,16.9-6.8l110-114.7c77.5,34.4,119.4,53.2,173.1,124.1
		C661.4,839.9,574.4,875.1,479.1,875.1z M857.6,496.6c0,99.2-38.2,189.5-100.7,257c-54.8-71.3-98.2-94.2-177.8-129.2
		c9.9-8.8,36.1-38.4,65.4-65.4c-92.2,26.4-154.1,115.9-221.9,179.3l-90.2-19.7l27.1-93.7c1.7-4.7,1.7-10-0.4-14.9l-7.9-48
		c-4-24.6,4.7-33.2,14.5-56.3c14.1,2.6,26.4,3.4,35.9,2.4c11-1.1,19.1-10.9,18-21.9c-1.1-11-10.9-19.1-21.9-18
		c-22.1,2.2-67-9.6-111.2-34.5c-98.6-55.5-137-140.3-81-240.8c0.1,101,71.1,167.2,162.2,197.9c12.6,4.2,34.8,13.8,46.5,5.6
		c155-90.9,228.6-185.8,373.8-118.5C831.8,339.7,857.6,415.1,857.6,496.6z"/>
</g>
<path class="st3" d="M368.3,551.3c-10,14.5-3.6,34.5,26.5,19c-20.5-0.5-2.6-53.3,1.2-59L368.3,551.3z"/>
<path class="st4" d="M122.2,277.6c-0.9,23.4,2.2,46.4,9.5,68.6c3.6-8.3,7.5-16.5,11.7-24.6c-5.2-24.7-4.8-50.2,0.5-76
	C136.2,256,128.9,266.6,122.2,277.6z"/>
<path class="st4" d="M410.6,124.3c7.3-1.3,14.7-2.5,22.2-3.4c10.6-17.5,21.6-27.7,33.5-42.9c-8.5,0.3-16.8,0.8-25.2,1.5
	C428.4,94.4,418.2,109.3,410.6,124.3z"/>
<path class="st4" d="M246,198.4c6.2-4.9,12.6-9.6,19.2-14.1c9-26.5,23.9-49.8,43.1-70.1c-19.8,8.8-38.7,19.2-56.7,30.8
	C247.1,164.3,245.4,182.1,246,198.4z"/>
</svg>
