<?xml version="1.0" encoding="utf-8"?>
<!-- Generator: Adobe Illustrator 21.0.0, SVG Export Plug-In . SVG Version: 6.00 Build 0)  -->
<svg version="1.1" id="Layer_1" xmlns="http://www.w3.org/2000/svg" xmlns:xlink="http://www.w3.org/1999/xlink" x="0px" y="0px"
	 viewBox="0 0 932 970" style="enable-background:new 0 0 932 970;" xml:space="preserve">
<style type="text/css">
	.st0{fill:#FFFFFF;}
	.st1{fill-rule:evenodd;clip-rule:evenodd;fill:#DB2626;}
	.st2{fill-rule:evenodd;clip-rule:evenodd;fill:#E03834;}
	.st3{fill:#B82626;}
	.st4{fill-rule:evenodd;clip-rule:evenodd;fill:#B82626;}
</style>
<circle class="st0" cx="467.7" cy="487.4" r="447.1"/>
<path class="st1" d="M254.2,275.7c-84.8,84.8-113.5,210-74.7,323.1c8-14.3,19.1-25.4,31.7-34.2c-12.7-23.4-23.7-64.1-20.2-98.1
	c10.7,34.9,22.5,63.1,47.9,83c16.3-7,32.9-11.4,47.3-14.8c-4.1-2.8-8.4-5.6-12.5-8.3c-28.1-18.5-55-36.1-61.7-57.7
	c-22.1-71.6,167.6-81.2,211.2-84.5c97.2-7.4,186.8-14.2,260.3-120.9C560.2,153.4,369.4,160.5,254.2,275.7z"/>
<path class="st2" d="M170.5,426.6c-12.9,56-10.4,115.6,9,172.2c8-14.3,19.1-25.4,31.7-34.2c-12.7-23.4-23.7-64.1-20.2-98.1
	c10.7,34.9,22.5,63.1,47.9,83c16.3-7,32.9-11.4,47.3-14.8c-4.1-2.8-8.4-5.6-12.5-8.3c-28.1-18.5-55-36.1-61.7-57.7
	c-22.1-71.6,167.6-81.2,211.2-84.5c78.7-6,152.5-11.6,216.8-70.3c-51.8-36.4-116.5-58-186.6-58C326.8,256,218.1,326.2,170.5,426.6z"
	/>
<path class="st3" d="M467.7,68.6c-115.6,0-220.3,46.9-296.1,122.6C95.8,267,49,371.7,49,487.4C49,603,95.8,707.7,171.6,783.4
	c75.8,75.8,180.5,122.6,296.1,122.6c115.6,0,220.3-46.9,296.1-122.6c75.8-75.8,122.6-180.5,122.6-296.1
	c0-115.6-46.9-220.3-122.6-296.1C688,115.5,583.3,68.6,467.7,68.6z M735.3,755c-68.5,68.5-163.1,110.8-267.6,110.8
	c-104.5,0-199.1-42.4-267.6-110.8C131.6,686.5,89.2,591.9,89.2,487.4c0-104.5,42.4-199.1,110.8-267.6
	c68.5-68.5,163.1-110.8,267.6-110.8c104.5,0,199.1,42.4,267.6,110.8c68.5,68.5,110.8,163.1,110.8,267.6
	C846.1,591.9,803.8,686.5,735.3,755z"/>
<ellipse transform="matrix(0.7071 -0.7071 0.7071 0.7071 -10.0968 449.3795)" class="st4" cx="537.4" cy="236.9" rx="16" ry="16"/>
<path class="st4" d="M225.7,247.2c-111,111-135.5,282.5-59.7,420c15.2,27.7,42,14.6,40.7-5.5c-4.4-66.9,63.4-82.2,99.6-90.4
	c22.9-5.2,63.6-21.3,31.7-48.2c-12.2-10.3-27.5-20.3-42.4-30.1c-11.9-8-23.5-15.8-32.1-22.5c-12.4-9.7-11.4-15.6-4.2-19.7
	c23.4-13.3,137.5-24.2,166.7-26.4c108.1-8.2,207.8-15.8,292.1-140.6c13.1-19.5,16.1-28.2-1.7-44.8
	C578.6,110.1,360,112.9,225.7,247.2z M423.1,384.2c-43.6,3.3-233.3,12.8-211.2,84.5c6.7,21.6,33.6,39.2,61.7,57.7
	c4.2,2.7,8.4,5.5,12.5,8.3c-14.4,3.4-31,7.9-47.3,14.8c-25.4-19.9-37.1-48.1-47.9-83c-3.5,33.9,7.5,74.7,20.2,98.1
	c-12.5,8.8-23.7,19.9-31.7,34.2c-38.9-113.1-10.1-238.3,74.7-323.1c35.3-35.3,77.3-60.4,122.1-75.2c-19.4,63.1,12,133.2,52.2,167
	c-28.3-41.7-38.8-144.5-10.6-177.7c92.3-17.1,191.2,7,265.7,73.5C609.9,370,520.3,376.8,423.1,384.2z"/>
<path class="st1" d="M723.5,410.6c12.7,23.4,23.7,64.1,20.2,98.1c-10.7-34.9-22.5-63.1-47.9-83c-16.3,7-32.9,11.4-47.3,14.8
	c4.1,2.8,8.4,5.6,12.5,8.3c28.1,18.5,55,36.1,61.7,57.7c22.1,71.6-167.6,81.2-211.2,84.5c-97.2,7.4-186.8,14.2-260.3,120.9
	c123.2,109.9,314.1,102.8,429.3-12.4c84.8-84.8,113.5-210,74.7-323.1C747.2,390.8,736,401.9,723.5,410.6z"/>
<path class="st2" d="M723.5,410.6c12.7,23.4,23.7,64.1,20.2,98.1c-10.7-34.9-22.5-63.1-47.9-83c-16.3,7-32.9,11.4-47.3,14.8
	c4.1,2.8,8.4,5.6,12.5,8.3c28.1,18.5,55,36.1,61.7,57.7c22.1,71.6-167.6,81.2-211.2,84.5c-78.7,6-152.5,11.6-216.8,70.3
	c51.8,36.4,116.5,58,186.6,58c126.5,0,235.2-70.2,282.8-170.7c12.9-56,10.4-115.6-9-172.2C747.2,390.8,736,401.9,723.5,410.6z"/>
<ellipse transform="matrix(0.7071 -0.7071 0.7071 0.7071 -405.7588 497.1273)" class="st4" cx="397.3" cy="738.4" rx="16" ry="16"/>
<path class="st4" d="M728,313.6c4.4,66.9-63.4,82.3-99.6,90.4c-22.9,5.2-63.6,21.3-31.7,48.2c12.2,10.3,27.5,20.3,42.4,30.1
	c11.9,8,23.5,15.8,32.1,22.5c12.4,9.7,11.4,15.6,4.2,19.7c-23.4,13.3-137.5,24.2-166.7,26.4c-108.1,8.2-207.8,15.8-292.1,140.6
	c-13.1,19.5-16.1,28.2,1.7,44.8c137.8,128.7,356.4,126,490.7-8.4c111-111,135.5-282.5,59.7-420C753.4,280.3,726.7,293.4,728,313.6z
	 M680.5,699.6c-35.3,35.3-77.3,60.4-122.1,75.2c19.4-63.1-12-133.2-52.2-167c28.3,41.7,38.8,144.5,10.6,177.7
	c-92.3,17.1-191.2-7-265.7-73.5c73.6-106.7,163.2-113.5,260.3-120.9c43.6-3.3,233.3-12.8,211.2-84.5c-6.7-21.6-33.6-39.2-61.7-57.7
	c-4.2-2.7-8.4-5.5-12.5-8.3c14.4-3.4,31-7.9,47.3-14.8c25.4,19.9,37.1,48.1,47.9,83c3.5-33.9-7.5-74.7-20.2-98.1
	c12.5-8.8,23.7-19.9,31.7-34.2C794.1,489.6,765.3,614.8,680.5,699.6z"/>
</svg>
