<?xml version="1.0" encoding="utf-8"?>
<!-- Generator: Adobe Illustrator 21.0.0, SVG Export Plug-In . SVG Version: 6.00 Build 0)  -->
<svg version="1.1" id="Layer_1" xmlns="http://www.w3.org/2000/svg" xmlns:xlink="http://www.w3.org/1999/xlink" x="0px" y="0px"
	 viewBox="0 0 932 970" style="enable-background:new 0 0 932 970;" xml:space="preserve">
<style type="text/css">
	.st0{fill:#FFFFFF;}
	.st1{fill:#DB2626;}
	.st2{fill:#FFD15C;}
	.st3{fill:#C89618;}
	.st4{fill:#B82626;}
	.st5{fill:#A72121;}
</style>
<circle class="st0" cx="466" cy="486.7" r="447.1"/>
<path class="st1" d="M261,169.8c-45.5,29.7-84.1,68.9-113.2,114.7c49.7-17.4,113.5-28.6,127.2-85.6
	c52.5,79.2-106.6,117.2-155.9,140.3C99.8,384.6,89.2,434.5,89.2,487c0,91.4,32.4,175.3,86.4,240.7c-1.6-21.3-9.5-42.5-18.9-61.4
	c-97.7-196-59.6-266,12-301.7c46.5-23.2,132.2-31.5,165-61.5C385.8,255.2,340.8,175.7,261,169.8z"/>
<path class="st1" d="M660.3,198.9c1.4,55.9,82.9,70.1,127.2,85.6c-29.1-45.9-67.7-85-113.2-114.7C594,175.8,549.5,256,602,303.4
	c33.1,29.8,118,38,164.6,61.2c71.6,35.7,109.7,105.7,12,301.7c-9.4,18.9-17.3,40.1-18.9,61.4c54-65.4,86.4-149.3,86.4-240.7
	c0-52.4-10.7-102.4-29.9-147.8C773.1,319,590.2,268.6,660.3,198.9z"/>
<path class="st2" d="M748.7,400.6c-43.7-21.8-96.2-25.4-141-46.2c3.8,21.1,4.2,41.5-3.2,55.5c-3.8,7.2-20.1,12.3-28,9
	c5.3,5,25.3,5.8,28,17.6c3.3,14.2-4.5,27.4-18.5,38.8c-7.6,6.2-18.2,9-25.9,15c-4.7,3.6-6.5,7.5,0.7,10.8
	c18.1,8.3,24.4,29.8,6.7,42.5c-8.9,6.4,3.5,16.3,9.7,16.5c-8.6,8.8-11.6,15.7-3.2,24.2c2.9,2.9,5.4,6,6.9,10
	c2.3,5.9,1.8,12.1-0.7,17.8c-14.2,31.6-5.3,37.1,22.8,40.3c39.6,4.5,78.3,4.3,100.8,47.3c11.6,22.2,16.3,50.5,10.2,74.6
	c3.1-2.7,6.2-5.4,9.2-8.2c-10.9-39.2,1.7-82.4,19.3-117.7C825.5,482.1,800.5,426.4,748.7,400.6z"/>
<path class="st2" d="M375.2,490.3c-7.7-6-18.3-8.8-25.9-15c-14-11.4-21.8-24.6-18.5-38.8c2.7-11.8,22.7-12.6,28-17.6
	c-7.9,3.3-24.2-1.8-28-9c-7.4-14-7-34.4-3.2-55.5c-44.8,20.8-97.3,24.4-141,46.2c-51.8,25.8-76.8,81.5,6.1,247.8
	c17.6,35.3,30.2,78.5,19.3,117.7c3,2.8,6.1,5.5,9.2,8.2c-6-24.1-1.4-52.4,10.2-74.6c22.6-43,61.3-42.8,100.8-47.3
	c28.1-3.2,36.9-8.7,22.8-40.3c-2.6-5.7-3.1-11.9-0.7-17.8c1.5-3.9,4.1-7.1,6.9-10c8.4-8.5,5.4-15.4-3.2-24.2
	c6.2-0.2,18.5-10.1,9.7-16.5c-17.7-12.7-11.3-34.2,6.7-42.5C381.6,497.8,379.9,493.9,375.2,490.3z"/>
<path class="st3" d="M206.6,681.6c9.1,27.4,13.1,56.9,5.4,84.4c3,2.8,6.1,5.5,9.2,8.2c-6-24.1-1.4-52.4,10.2-74.6
	c18.3-35,47.3-41.4,78.8-45h0C271,654.6,235,664.7,206.6,681.6z"/>
<path class="st4" d="M295.2,410.8c6.9,19.3-48.8,21.5-55.6,20l47.3,11.5C304,446.5,320.4,433.4,295.2,410.8z"/>
<path class="st4" d="M640.1,410.8c-25.3,22.6-8.9,35.7,8.2,31.5l47.3-11.5C688.9,432.3,633.2,430.2,640.1,410.8z"/>
<path class="st4" d="M467.6,68.2C236.4,68.2,48.9,255.7,48.9,487c0,231.2,187.8,418.7,418.7,418.7c230.9,0,418.7-187.5,418.7-418.7
	C886.4,255.7,698.9,68.2,467.6,68.2z M89.2,487c0-52.4,10.7-102.4,29.9-147.8c49.3-23.1,208.4-61.1,155.9-140.3
	c-13.7,57-77.5,68.2-127.2,85.6c29.1-45.9,67.8-85,113.2-114.7c79.7,5.9,124.8,85.4,72.6,133.2c-32.7,30-118.5,38.3-165,61.5
	c-71.6,35.7-109.7,105.7-12,301.7c9.4,18.9,17.3,40.1,18.9,61.4C121.6,662.3,89.2,578.4,89.2,487z M231.4,699.6
	c-11.6,22.2-16.3,50.5-10.2,74.6c-3.1-2.7-6.2-5.4-9.2-8.2c10.9-39.2-1.7-82.4-19.3-117.7c-82.9-166.3-57.8-222-6.1-247.8
	c43.7-21.8,96.2-25.4,141-46.2c-3.8,21.1-4.2,41.5,3.2,55.5c3.8,7.2,20.1,12.3,28,9c-5.3,5-25.3,5.8-28,17.6
	c-3.3,14.2,4.5,27.4,18.5,38.8c7.6,6.2,18.2,9,25.9,15c4.7,3.6,6.5,7.5-0.7,10.8c-18.1,8.3-24.4,29.8-6.7,42.5
	c8.9,6.4-3.5,16.3-9.7,16.5c8.6,8.8,11.6,15.7,3.2,24.2c-2.9,2.9-5.4,6-6.9,10c-2.3,5.9-1.8,12.1,0.7,17.8
	c14.2,31.6,5.3,37.1-22.8,40.3C292.7,656.8,254,656.6,231.4,699.6z M467.6,865.4c-86.2,0-232.4-34.1-213.3-139.8
	c13.3-39.1,46.9-36.3,81.2-40.2c45.9-5.2,70.9-28.7,50.4-80.8c-6.9-16.7,22.5-23.5-3.5-39.4c10-1.5,19.2-20.5,8.4-28.7
	c-5-3.8-11.6-7.1-8-10.5c58.7-38.9,21.7-46.2-10.3-72.8c-1.6-1.4-16.4-15.2-14.7-15.4c25.9-3.8,31.7-18.2,39.4-29.8
	c-49.3,17.2-37.9-22.6-33.3-55.1c1.4-10.3,6.4-20.3,12.1-30.5c51.3-92.1-0.4-151.8-73.2-176.2c49.8-24.1,105.7-37.7,164.8-37.7
	c59.1,0,115,13.5,164.8,37.7c-72.8,24.4-124.4,84.2-73.2,176.2c5.7,10.2,10.7,20.2,12.1,30.5c4.6,32.5,16,72.3-33.3,55.1
	c7.7,11.5,13.5,26,39.4,29.8c1.6,0.2-13.1,14-14.7,15.4c-32,26.6-69.1,33.8-10.3,72.8c3.6,3.4-3,6.7-8,10.5
	c-10.8,8.2-1.6,27.3,8.4,28.7c-26,15.9,3.5,22.7-3.5,39.4c-20.5,52.1,4.5,75.6,50.4,80.8c34.4,3.9,67.9,1.1,81.2,40.2
	C700.1,831.3,553.9,865.4,467.6,865.4z M723.3,766c-3,2.8-6.1,5.5-9.2,8.2c6-24.1,1.4-52.4-10.2-74.6c-22.5-43-61.3-42.8-100.8-47.3
	c-28.1-3.2-36.9-8.7-22.8-40.3c2.6-5.7,3.1-11.9,0.7-17.8c-1.5-3.9-4.1-7.1-6.9-10c-8.4-8.5-5.4-15.4,3.2-24.2
	c-6.2-0.2-18.6-10.1-9.7-16.5c17.7-12.7,11.3-34.2-6.7-42.5c-7.2-3.3-5.4-7.2-0.7-10.8c7.7-6,18.3-8.8,25.9-15
	c14-11.4,21.8-24.6,18.5-38.8c-2.8-11.8-22.7-12.6-28-17.6c7.9,3.3,24.2-1.8,28-9c7.4-14,7-34.4,3.2-55.5
	c44.8,20.8,97.3,24.4,141,46.2c51.8,25.8,76.8,81.5-6.1,247.8C725,683.6,712.4,726.8,723.3,766z M816.2,339.2
	c19.3,45.4,29.9,95.4,29.9,147.8c0,91.4-32.4,175.3-86.4,240.7c1.6-21.3,9.5-42.5,18.9-61.4c97.7-196,59.6-266-12-301.7
	c-46.6-23.2-131.5-31.3-164.6-61.2c-52.6-47.4-8.1-127.6,72.2-133.6c45.5,29.7,84.1,68.8,113.2,114.7
	c-44.2-15.5-125.8-29.7-127.2-85.6C590.2,268.6,773.1,319,816.2,339.2z"/>
<path class="st5" d="M241.9,134.2c20.8,1.4,41.6,5.4,60.9,11.9c6.3-3.1,12.7-5.9,19.2-8.7c-18.5-7.7-38.9-12.9-59.7-15.6
	C255.5,125.8,248.6,129.9,241.9,134.2z"/>
<path class="st5" d="M613.2,137.5c6.5,2.7,12.9,5.6,19.2,8.7c19.3-6.5,40.2-10.5,60.9-11.9c-6.7-4.3-13.6-8.4-20.5-12.3
	C652.1,124.6,631.7,129.8,613.2,137.5z"/>
<path class="st3" d="M625,654.6L625,654.6c31.5,3.6,60.5,10,78.8,45c11.6,22.2,16.3,50.5,10.2,74.6c3.1-2.7,6.2-5.4,9.2-8.2
	c-7.6-27.6-3.7-57.1,5.4-84.4C700.3,664.7,664.3,654.6,625,654.6z"/>
</svg>
