<?xml version="1.0" encoding="utf-8"?>
<!-- Generator: Adobe Illustrator 21.0.0, SVG Export Plug-In . SVG Version: 6.00 Build 0)  -->
<svg version="1.1" id="Layer_1" xmlns="http://www.w3.org/2000/svg" xmlns:xlink="http://www.w3.org/1999/xlink" x="0px" y="0px"
	 viewBox="0 0 50 50" style="enable-background:new 0 0 50 50;" xml:space="preserve">
<style type="text/css">
	path {
		fill:#e0e0e0;
		stroke:#e0e0e0;
	}
</style>
<path d="M38.1,8.7c-1.6,0-3,1.3-3,3c0,1.7,1.3,3,3,3c1.6,0,2.9-1.3,2.9-3C41.1,10,39.8,8.7,38.1,8.7z M25,33.3
	c-4.5,0-8.2-3.7-8.2-8.3c0-4.6,3.7-8.3,8.2-8.3c4.5,0,8.2,3.7,8.2,8.3C33.2,29.6,29.5,33.3,25,33.3z M25,12.2
	c-7,0-12.6,5.7-12.6,12.8c0,7.1,5.7,12.8,12.6,12.8c7,0,12.6-5.7,12.6-12.8C37.6,17.9,32,12.2,25,12.2z M25,0c-6.7,0-7.5,0-10.1,0.2
	C5.9,0.6,1,5.6,0.6,14.7C0.4,17.4,0.4,18.2,0.4,25c0,6.8,0,7.6,0.1,10.3C1,44.4,5.9,49.4,14.9,49.9C17.5,50,18.3,50,25,50
	c6.7,0,7.5,0,10.1-0.1c8.9-0.4,13.9-5.5,14.3-14.5c0.1-2.7,0.1-3.5,0.1-10.3c0-6.8,0-7.6-0.1-10.3C49,5.6,44.1,0.6,35.1,0.2
	C32.5,0,31.7,0,25,0z M25,4.5c6.6,0,7.3,0,9.9,0.1C41.6,5,44.7,8.2,45,14.9c0.1,2.6,0.1,3.4,0.1,10.1s0,7.5-0.1,10.1
	c-0.3,6.7-3.4,9.9-10.1,10.2c-2.6,0.1-3.4,0.1-9.9,0.1c-6.6,0-7.3,0-9.9-0.1C8.4,45,5.3,41.8,5,35.1C4.9,32.5,4.8,31.7,4.8,25
	s0-7.5,0.1-10.1C5.3,8.2,8.4,5,15.1,4.7C17.7,4.5,18.4,4.5,25,4.5z"/>
</svg>
