<?xml version="1.0" encoding="utf-8"?>
<!-- Generator: Adobe Illustrator 21.0.0, SVG Export Plug-In . SVG Version: 6.00 Build 0)  -->
<svg version="1.1" id="Layer_1" xmlns="http://www.w3.org/2000/svg" xmlns:xlink="http://www.w3.org/1999/xlink" x="0px" y="0px"
	 viewBox="0 0 932 970" style="enable-background:new 0 0 932 970;" xml:space="preserve">
<style type="text/css">
	.st0{fill:#FFFFFF;}
	.st1{fill:#DB2626;}
	.st2{fill:#E03834;}
	.st3{fill:#B82626;}
	.st4{fill:#A72121;}
</style>
<circle class="st0" cx="466.6" cy="486.7" r="447.1"/>
<path class="st1" d="M541,123.9c-150.9-15.8-290,93.7-196.3,263.9c35.5,64.5,103.1,116.4,182.6,120.9
	c84.7,4.8,133.1-42.4,143.6-105.6c-2.5,3.5-5.2,6.7-8,9.7c-25.3,27-62.6,35-98.1,28.6c-129.3-23.4-120.7-179.2-27.6-186
	c16.1-1.2,32.9,3.4,47.9,15.2c33.5,26.3,22.4,81-14.1,80.2c11.5-23.3-4.4-57.2-31-55.2c-46.6,3.4-49.8,91.7,31.9,106.4
	c21.9,4,45.9,0.3,61.8-16.6c17.4-18.5,25.6-53,13.5-109.3c-5.7-24,27.8-34.3,37.8-13.2c70.7,139.3,5.4,295.2-159.8,286
	c-71.8-4-134.9-39.9-179.4-90.3c-19.3,57.4-36.9,138.8-27.6,199.3c26.7,17,51.6,32,82,41.1c63.5-64.7,117.6-40.4,164.3,21.8
	c-2.1-14.7-5.9-33.5-9.6-51.8C519.3,493,752.3,546.5,791.5,683.7c34-56.8,53.5-123.2,53.5-194.1C845,321,715.6,142.1,541,123.9z"/>
<path class="st2" d="M574.3,574.8c54.5-47.7,188.4,7.9,217.2,108.9c33.4-55.8,52.9-121,53.5-190.7
	C747.7,472.6,643.1,501.8,574.3,574.8z"/>
<path class="st2" d="M535.8,433.1c-78.9-31.8-85.3-123-40.6-161c45.7-38.8,170.6-63,229.9-58.5c-50.3-48.7-113.5-82.3-184.2-89.7
	C294.8,98.2,329.6,349.5,535.8,433.1z"/>
<path class="st3" d="M466.6,70.9c-231.2,0-418.7,187.5-418.7,418.7c0,231.2,187.5,418.7,418.7,418.7
	c231.2,0,418.7-187.5,418.7-418.7C885.3,258.1,697.7,70.9,466.6,70.9z M466.6,868.1c-209,0-378.5-169.4-378.5-378.5
	c0-168.3,111.2-316.3,272.2-363.3c-85.9,58.9-121.1,169.6-43.4,293.4c-26.4,71.9-42.8,137.2-40.4,216.1c0.8,25.8,6.7,47,13.4,51.4
	c10.6,7,47.9,30.4,77.1,43.3c27.4,12.1,42.5,15.8,62-3.7c49.5-49.5,81.4-12.9,111.9,29.4c39.8,55.3,66.1,22.2,63.6-29.1
	c-1-20.3-5.7-43.6-10.3-66.3c-17.8-104.7,144.8-57.7,166.3,67.3C688.3,816.8,581,868.1,466.6,868.1z M791.5,683.7
	C752.3,546.5,519.3,493,554.7,668.8c3.7,18.3,7.5,37.1,9.6,51.8c-46.6-62.1-100.7-86.5-164.3-21.8c-30.4-9.1-55.3-24.2-82-41.1
	c-9.3-60.5,8.3-141.8,27.6-199.3c44.5,50.4,107.6,86.3,179.4,90.3c165.2,9.3,230.5-146.7,159.8-286c-10-21.1-43.5-10.8-37.8,13.2
	c12.1,56.2,3.9,90.7-13.5,109.3c-15.9,16.9-39.8,20.6-61.8,16.6c-81.7-14.8-78.5-103-31.9-106.4c26.6-1.9,42.5,31.9,31,55.2
	c36.5,0.8,47.6-53.8,14.1-80.2c-15-11.8-31.7-16.4-47.9-15.2c-93.1,6.8-101.7,162.6,27.6,186c35.4,6.4,72.8-1.6,98.1-28.6
	c2.8-3,5.5-6.2,8-9.7c-10.5,63.1-58.9,110.3-143.6,105.6c-79.5-4.5-147.1-56.4-182.6-120.9C251,217.6,390.1,108.1,541,123.9
	C715.6,142.1,845,321,845,489.6C845,560.6,825.5,627,791.5,683.7z"/>
<path class="st3" d="M352,491.1l-8.8,47.9c-3.2,17.3,10.8,33,31.9,6.4C356.2,553.4,350.9,497.9,352,491.1z"/>
<path class="st4" d="M428,72.7c-46.4,13.2-89.7,37.9-121.9,74.1c17.4-8.2,35.5-15,54.2-20.5C430.7,78,536.8,68.3,616.1,98.4
	C556.2,75.5,491.7,66.8,428,72.7z"/>
</svg>
