<?xml version="1.0" encoding="utf-8"?>
<!-- Generator: Adobe Illustrator 21.0.0, SVG Export Plug-In . SVG Version: 6.00 Build 0)  -->
<svg version="1.1" id="Layer_1" xmlns="http://www.w3.org/2000/svg" xmlns:xlink="http://www.w3.org/1999/xlink" x="0px" y="0px"
	 viewBox="0 0 932 970" style="enable-background:new 0 0 932 970;" xml:space="preserve">
<style type="text/css">
	.st0{fill:#FFFFFF;}
	.st1{fill:#B82626;}
	.st2{fill:#A72121;}
	.st3{fill:#FFD15C;}
	.st4{fill:#C89618;}
	.st5{fill:#DB2626;}
	.st6{fill:#E03834;}
</style>
<circle class="st0" cx="468" cy="506.6" r="447.1"/>
<path class="st1" d="M491.2,84.7V39.5c0-11.1-9-20.1-20.1-20.1c-11.1,0-20.1,9-20.1,20.1v45.3C227.9,95.3,52.3,279.6,52.3,503
	c0,231.2,187.5,418.7,418.7,418.7c231.2,0,418.7-187.5,418.7-418.7C889.8,279.6,714.2,95.3,491.2,84.7z M151.7,706.2
	C114.3,647.5,92.6,577.8,92.6,503c0-201.2,157.6-367.4,358.3-377.9v36.1c-84.6,5-160.7,41.4-217,97.6
	c-63.1,63.1-98.2,147.9-98.2,237.1c0,74.4,60.3,134.7,134.7,134.7c69.8,0,128.2-53.4,134.2-122.9c15.5-90.6-29.2-195.9-91.8-260.9
	c40.4-25.7,87.5-41.9,138.1-45.3v504.8H151.7z M176.7,475.7c5.4-79.7,42.7-153.2,103.5-204.9c51.8,51.9,88.6,130.8,87.1,204.9H176.7
	z M362.7,515.9c-9.4,43.3-47.9,74.3-92.3,74.3c-44.4,0-82.9-31-92.3-74.3H362.7z M471.1,881.4c-112.2,0-217.7-49.3-289.7-135h579.5
	C688.7,832.2,583.2,881.4,471.1,881.4z M790.4,706.2H491.2V201.4c50.6,3.4,97.7,19.6,138.1,45.3c-62.6,65-107.3,170.2-91.8,260.9
	c6,69.5,64.4,122.9,134.2,122.9c74.4,0,134.7-60.3,134.7-134.7c0-92.6-37.5-176.4-98.2-237.1c-56.3-56.3-132.4-92.6-217-97.6V125
	C692,135.6,849.5,301.8,849.5,503C849.5,577.8,827.8,647.5,790.4,706.2z M574.9,475.7c-1.5-74.1,35.3-153,87.1-204.9
	c60.7,51.6,98.1,125.2,103.5,204.9H574.9z M764,515.9c-9.4,43.3-47.9,74.3-92.3,74.3c-44.4,0-82.9-31-92.3-74.3H764z"/>
<path class="st2" d="M433.3,126.4c5.8-0.6,11.7-1,17.6-1.3V84.7c-5.9,0.3-11.8,0.7-17.6,1.2V126.4z"/>
<path class="st2" d="M491.2,125c5.9,0.3,11.8,0.8,17.6,1.3V85.9c-5.8-0.5-11.7-0.9-17.6-1.2V125z"/>
<path class="st3" d="M270.4,590.2c44.4,0,82.9-31,92.3-74.3H178.1C187.5,559.2,226,590.2,270.4,590.2z"/>
<path class="st4" d="M320.5,575.9c21-13.1,36.7-34.4,42.2-59.9H232C254,537.5,283.9,557.7,320.5,575.9z"/>
<path class="st5" d="M471.1,881.4c112.2,0,217.7-49.3,289.7-135H181.3C253.4,832.2,358.9,881.4,471.1,881.4z"/>
<path class="st6" d="M277.4,828.2c57.8,34.5,124.5,53.2,193.7,53.2c112.2,0,217.7-49.3,289.7-135H664
	C510.5,756.5,375.1,786.2,277.4,828.2z"/>
<path class="st3" d="M671.7,590.2c44.4,0,82.9-31,92.3-74.3H579.4C588.8,559.2,627.3,590.2,671.7,590.2z"/>
<path class="st4" d="M721.7,542.7c21-7.6,36.7-19.8,42.2-34.5H633.3C655.3,520.7,685.2,532.3,721.7,542.7z"/>
</svg>
