<?xml version="1.0" encoding="utf-8"?>
<!-- Generator: Adobe Illustrator 22.0.1, SVG Export Plug-In . SVG Version: 6.00 Build 0)  -->
<svg version="1.1" id="Layer_1" xmlns="http://www.w3.org/2000/svg" xmlns:xlink="http://www.w3.org/1999/xlink" x="0px" y="0px"
	 viewBox="0 0 42.3 33.4" style="enable-background:new 0 0 42.3 33.4;" xml:space="preserve">
<style type="text/css">
	.st0{fill:#FFFFFF;}
</style>
<g>
	<path class="st0" d="M2.6,28.7c3.2-1.6,5.7-3.4,7.5-5.5s2.9-4.6,3.2-7.6h-2.4c-1.8,0-3.2-0.2-4.3-0.6c-1.1-0.4-2-1-2.7-1.7
		c-0.7-0.6-1.1-1.4-1.4-2.2c-0.3-0.8-0.4-1.7-0.4-2.6c0-1.8,0.7-3.4,2.2-4.7c1.5-1.4,3.2-2.1,5.2-2.1c3.1,0,5.5,1,7.2,3.1
		s2.5,5,2.5,8.6c0,3.4-1.4,6.9-4.3,10.3c-2.9,3.6-6.4,6.2-10.5,8L2.6,28.7z M23.5,28.7c3.2-1.6,5.7-3.4,7.5-5.5
		c1.8-2.1,2.9-4.6,3.2-7.6h-2.4c-1.8,0-3.2-0.2-4.3-0.6c-1.1-0.4-2-1-2.7-1.7s-1.1-1.4-1.4-2.3C23.1,10.2,23,9.3,23,8.4
		c0-1.8,0.7-3.4,2.2-4.8c1.5-1.2,3.2-1.9,5.2-1.9c3.1,0,5.5,1,7.2,3.1s2.5,5,2.5,8.6c0,3.4-1.4,6.9-4.3,10.3
		c-2.9,3.5-6.3,6.1-10.4,7.9L23.5,28.7z"/>
</g>
</svg>
