<?xml version="1.0" encoding="utf-8"?>
<!-- Generator: Adobe Illustrator 21.0.0, SVG Export Plug-In . SVG Version: 6.00 Build 0)  -->
<svg version="1.1" id="Layer_1" xmlns="http://www.w3.org/2000/svg" xmlns:xlink="http://www.w3.org/1999/xlink" x="0px" y="0px"
	 viewBox="0 0 932 970" style="enable-background:new 0 0 932 970;" xml:space="preserve">
<style type="text/css">
	.st0{fill:#FFFFFF;}
	.st1{fill:#FFD15C;}
	.st2{fill:#B82626;}
	.st3{fill:#A72121;}
	.st4{fill:#C89618;}
</style>
<circle class="st0" cx="466" cy="487.4" r="447.1"/>
<path class="st1" d="M143.2,500.9l17.4,6.6c31.5,9.5,17.5,22.7,5.8,44.6l44.4-18.6l20.9-39.1l-42.5-12.9L143.2,500.9z"/>
<path class="st2" d="M862.6,248.7c10.1-12.7,1.5-32-15.1-32.5l-63.8-2C703.9,119.1,587,64.3,462.5,64.3c-97,0-186.2,33-257.2,88.3
	c-4.9-4.3-8.7-9.3-10.7-15.1c-9.2-26.6,14.7-42,37.9-45.3c26.2-3.6,20.7-43.4-5.5-39.8c-49.6,7-88,47.3-70.3,98.2
	c4.1,11.7,9.9,21.2,17.2,29C90.6,259,43.8,367.9,43.8,483c0,231.2,187.5,418.7,418.7,418.7c318.4,0,516-340.2,370-615L862.6,248.7z
	 M806.3,255.1l-55.7,70.5l-29.8-73.2L806.3,255.1z M462.5,104.6c103,0,196.4,41.2,264.7,107.9l-35.4-1.1
	c-14.5-0.9-25.4,13.8-19.8,27.6l19.2,47.1l-153.6,62.5c-12-28.6-27.6-54.7-46.1-75.5c-57.5-64.7-133.4-78.7-197.4-90.4
	c-14.7-2.7-28.6-5.3-41.2-8.3c-2.1-0.5-4.4-1.1-6.8-1.8C307.4,129.7,382.1,104.6,462.5,104.6z M226.8,209c18,5.4,38.4,9.1,60,13.1
	c57.7,10.6,126.2,23.2,174.6,77.7c15.5,17.4,28.6,39.5,38.9,63.9l-246,100c-19.8-6.3-42.7-14.4-61.5-18.6L226.8,209z M225.5,496.9
	l0.1,0.1c0.1,0.3,0.3,0.7,0.4,1l-17.8,33.3l-34.9,14.8l6.3-11.9c6-11.2-0.4-26.6-12.6-30.3l-12.9-3.9l35.2-14.2L225.5,496.9z
	 M183.6,227.2l-33.3,231.1l-66.2,26.9C83.5,389.5,118.8,297.8,183.6,227.2z M325.9,836.1C193.5,784.8,100.1,662.9,86,521.1
	l47.5,14.5l-21.8,40.8c-9.9,16.4,7,36.6,25,28.9l48.8-20.7L338,771.5C326.1,791.3,320.9,813.2,325.9,836.1z M224,568.3
	c7.2-3.1,13.1-4.8,16.8-12.7l29.3-54.9l243.5-99c10.7,37.5,15.5,81.3,9.7,120c-12.4,83.8-70.6,136-119.1,179.5
	c-14.7,13.2-28.6,25.7-40.6,38.2L224,568.3z M462.5,861.5c-5.8,0-11.7-0.1-17.4-0.4c-0.3-14.2-15.2-23.8-28.3-17.9
	c-11.4,5.1-27.1,9.2-38.7,2.8c-7.5-4.1-11.9-12-13.2-20.3c-4.8-31.2,27.4-60,66-94.7c53.5-48,117.6-105.5,132.2-203.6
	c6.8-46.1,1-96.5-12.1-141l155.3-63.2l19.7,48.2c5,14.9,24.8,18.6,34.8,6l44.2-55.9C921.8,569.2,742.3,861.5,462.5,861.5z"/>
<path class="st3" d="M163.4,190.1c2.9,3.1,6,5.9,9.3,8.6l-7.2,49.7c5.8-7.3,11.8-14.3,18.1-21.2l5.1-35.2
	c-5.4-3.6-10.3-7.7-14.7-12.4C170.4,183.1,166.8,186.6,163.4,190.1z"/>
<path class="st3" d="M205.3,152.6c11,9.7,27.4,16.1,40.8,19.9c5.5-3.9,11.1-7.6,16.9-11.1c-15-3.3-33.3-8.7-45.5-17.9
	C213.4,146.5,209.3,149.5,205.3,152.6z"/>
<path class="st3" d="M713.7,199.9c4.6,4.1,9.1,8.3,13.5,12.6l56.4,1.8c-3.5-4.2-7.2-8.4-10.9-12.5L713.7,199.9z"/>
<path class="st3" d="M805,321.7c1.9,4.1,3.8,8.3,5.6,12.5l28-35.4c-2-4-4-8-6.1-11.9L805,321.7z"/>
<polygon class="st1" points="750.6,325.6 806.3,255.1 720.8,252.4 "/>
<polygon class="st4" points="750.6,325.6 806.3,255.1 735.7,289 "/>
<path class="st4" d="M173.3,546.2l34.9-14.8l18.2-34.2l-46.4,19.2C185,528.4,178.8,535.9,173.3,546.2z"/>
</svg>
