<?xml version="1.0" encoding="utf-8"?>
<!-- Generator: Adobe Illustrator 21.0.0, SVG Export Plug-In . SVG Version: 6.00 Build 0)  -->
<svg version="1.1" id="Layer_1" xmlns="http://www.w3.org/2000/svg" xmlns:xlink="http://www.w3.org/1999/xlink" x="0px" y="0px"
	 viewBox="0 0 932 970" style="enable-background:new 0 0 932 970;" xml:space="preserve">
<style type="text/css">
	.st0{fill:#FFFFFF;}
	.st1{fill:#FFD15C;}
	.st2{fill:#C89618;}
	.st3{fill:#DB2626;}
	.st4{fill:#E03834;}
	.st5{fill:#B82626;}
	.st6{fill:#A72121;}
</style>
<circle class="st0" cx="465" cy="472.7" r="447.1"/>
<path class="st1" d="M526,290.1c-15.5,14.9-30.3,20.9-43.8,6.8c-14.8-15.4-31.8-28.9-50.2-39.9c-4.7-2.8-9.1-5.3-13.3-7.6
	c-71.2,66.5-74.1,95.8-76.8,124c-2.9,30-5.7,59-54.4,109.7c4.8,20.5-2.5,54.2-24.9,73.9c5.6,3.3,12.6,7.1,20.2,11.3
	c33.6,18.5,57.8,30.3,80.3,61.8c12.7,17.7,30.7,42.9,41.9,36.2c44.6-26.6,82.4-64.3,126.1-92.2c33.5-21.4,19.2-147,7.3-183.2
	c-5.6-17,4.8-31.7,17.7-49.8c16.3-22.9,39.3-55.3,5.8-88.3C560.4,251.3,529.9,286.3,526,290.1z"/>
<path class="st2" d="M562.8,444.2c1.8-39.7-29.4-74.6-62.5-94.2c21.9,54.8,32.9,181.7,7,240.5C577.6,583.4,561.4,475.4,562.8,444.2z
	"/>
<path class="st3" d="M655.9,166.8c-26.3-8.3-56-13-89.8-13.4c134.3,42.4,207,130.5,200.6,278.6c-54.2-202.2-168.2-266-367-262.5
	c-19,0.3-77-1.2-27.1,15.9c46.1,15.7,92.1,39.7,127.9,73.3c17.7-18,49.5-66.4,76.2-45.9c102.9,78.7-1.8,160.8-0.2,165.5
	c20,60.7,22.7,134.1-2.7,217.7c-15.4,50.8-41.1,105.4-79.7,163.2c121.8-72.9,169.6-228,128.3-362.6c100.5,133.5,27.5,375.4-46.4,479
	c60.5-31.9,110.5-76.5,142.6-144c37.9-79.7,48.9-188.8,53.1-256.8c21.9,77.4,12.5,175.6-0.3,224.7c46.8-63,74.4-141,74.4-225.4
	C846,349.8,782.1,206.7,655.9,166.8z"/>
<path class="st4" d="M576.2,875.6C719,755.9,767.4,534.7,622.6,396.6C723,530.1,650.1,771.9,576.2,875.6z"/>
<path class="st5" d="M467.6,55.4c-231.2,0-418.7,187.5-418.7,418.7c0,231.2,187.5,418.7,418.7,418.7c18.9,0,37.6-1.3,55.8-3.7
	c-30.9,72.5,14.6,51.2,65.6,25c43.7-22.4,96.7-54.3,136.1-109.9c13.5-10.6,26.4-22,38.5-34.1c75.8-75.8,122.6-180.5,122.6-296.1
	c0-115.6-46.9-220.3-122.6-296.1C687.9,102.3,583.2,55.4,467.6,55.4z M467.6,852.6c-209,0-378.5-169.4-378.5-378.5
	c0-209,169.4-378.5,378.5-378.5c40.4,0,79.2,6.3,115.7,18c-44.7-2.3-95.5,2.6-153.4,16.1c-34.4-1.4-69.9,0.3-103.6,6.9
	c-88.6,17.4,18.1,79.8,53.7,94.1c-71.3,69.6-74.7,104.9-78,138.9c-2.2,22.8-4.3,45-43.3,85.6c-61.9,64.5-85.2,98.7,4.9,148.2
	c27.3,15,48.8,24.6,67,50c21.5,30,52.2,72.9,95.2,47.2c32.5-19.4,62-44.3,92-67.5c-22.6,53.2-57.2,110.4-106.7,171.2
	c-7,8.6-5.7,21.2,2.9,28.2c6.7,5.4,15.9,5.9,22.9,1.7c6.6-3.5,14-7.1,22-11c43.8-21.5,104.7-51.3,150.9-109.6
	c-17.7,41-41.7,81.1-66,131.2C519,849.9,493.6,852.6,467.6,852.6z M538.4,390.8c12,36.3,26.2,161.9-7.3,183.2
	c-43.7,27.9-81.5,65.6-126.1,92.2c-11.2,6.7-29.2-18.6-41.9-36.2c-22.5-31.4-46.7-43.3-80.3-61.8c-7.6-4.2-14.6-8-20.2-11.3
	c22.4-19.7,29.7-53.4,24.9-73.9c48.7-50.7,51.5-79.7,54.4-109.7c2.7-28.2,5.5-57.5,76.8-124c4.2,2.3,8.6,4.9,13.3,7.6
	c18.4,10.9,35.4,24.4,50.2,39.9c13.5,14.1,28.3,8.1,43.8-6.8c3.9-3.7,34.4-38.7,35.9-37.3c33.5,33,10.5,65.4-5.8,88.3
	C543.2,359.2,532.8,373.8,538.4,390.8z M771.6,699.5c12.9-49.1,22.2-147.3,0.3-224.7c-4.2,68-15.2,177-53.1,256.8
	c-32.1,67.5-82.1,112.1-142.6,144c73.9-103.6,146.9-345.5,46.4-479c41.3,134.6-6.5,289.7-128.3,362.6
	c38.6-57.9,64.3-112.5,79.7-163.2c25.3-83.6,22.7-157,2.7-217.7c-1.6-4.7,103.1-86.8,0.2-165.5c-26.7-20.5-58.5,27.9-76.2,45.9
	c-35.8-33.6-81.8-57.6-127.9-73.3c-49.9-17.1,8-15.5,27.1-15.9c198.8-3.6,312.9,60.2,367,262.5c9.6-110.3-44.3-247.7-200.6-278.6
	c33.7,0.4,63.5,5.1,89.8,13.4C782.1,206.7,846,349.8,846,474.1C846,558.6,818.4,636.6,771.6,699.5z"/>
<path class="st5" d="M418.8,315.4c-20.9,5.5-38.8,25.7-47.8,46.1c-4.7,10,7,30.4,17,35c1.2,0.6-3.5-15,1.4-31
	C395.2,346.3,411.3,325.2,418.8,315.4z"/>
<circle class="st5" cx="373.5" cy="557.7" r="12.3"/>
<circle class="st5" cx="407.8" cy="579.5" r="12.3"/>
<circle class="st5" cx="416.2" cy="538" r="12.3"/>
<path class="st6" d="M687.7,117.8c-54.5-20.3-113.3-24.2-170.8-19c22.8,3,45,8,66.4,14.8c76.4,3.5,140,29.3,196.3,81.3
	C752.9,165,721.8,139,687.7,117.8z"/>
<path class="st6" d="M498.6,891.7c8.3-0.6,16.6-1.5,24.8-2.6c6.7-15.7,13.5-30.3,20.2-44.2c-8.6,1.8-17.4,3.2-26.2,4.4
	C510.8,863.3,504.6,877.3,498.6,891.7z"/>
<path class="st6" d="M725.1,804.3c13.5-10.6,26.4-22,38.5-34.1c4.1-4.1,8.1-8.3,12-12.5c14-33.5,22.1-69,25.8-105.3
	c-8.8,16.5-18.8,32.2-29.9,47.2C761.6,741.8,745.1,776.1,725.1,804.3z"/>
<circle class="st5" cx="373.5" cy="557.7" r="12.3"/>
<circle class="st5" cx="416.2" cy="538" r="12.3"/>
<circle class="st5" cx="407.8" cy="579.5" r="12.3"/>
</svg>
