<?xml version="1.0" encoding="utf-8"?>
<!-- Generator: Adobe Illustrator 21.0.0, SVG Export Plug-In . SVG Version: 6.00 Build 0)  -->
<svg version="1.1" id="Layer_1" xmlns="http://www.w3.org/2000/svg" xmlns:xlink="http://www.w3.org/1999/xlink" x="0px" y="0px"
	 viewBox="0 0 932 970" style="enable-background:new 0 0 932 970;" xml:space="preserve">
<style type="text/css">
	.st0{fill:#FFFFFF;}
	.st1{fill:#DB2626;}
	.st2{fill:#E03834;}
	.st3{fill:#B82626;}
	.st4{fill:#A72121;}
</style>
<circle class="st0" cx="463" cy="501.7" r="447.1"/>
<path class="st1" d="M780,267.8c20.9,54,21.6,99.4,10.2,131.2c-16.6,46.3-60,68.7-106.1,48.2c-29.9-13.3-61-45.8-84.7-101.6
	c-10.3,51.5-6.2,105.1,29.6,146.4c50.8,58.5,160.3,77,217.3,19.6c39.1-39.4,29.8-101.1,8.6-147C839.1,330.2,813.6,296.4,780,267.8z"
	/>
<path class="st2" d="M724.9,443.5c-61.8-1.8-97.4-48.6-125.5-98c-10.3,51.5-13.3,105.9,22.6,147.2C690.9,572,789.1,469.2,796,374.8
	c-1.3,8.7-3.2,16.8-5.9,24.1C778.8,430.5,754.1,444.3,724.9,443.5z"/>
<path class="st1" d="M350.3,272.9c-49.4-9.9-72-53.3-58.8-100.6c9-32.5,35.8-69.2,84.1-101.2C253.1,82,96.6,190.3,227.9,307.2
	c86.8,77.3,204.3,34.9,250.2-68.5C426.5,270.7,382.4,279.3,350.3,272.9z"/>
<path class="st2" d="M288.1,190.8c-23,191.7,136.5,197.3,190,47.9C420.1,274.6,280.3,285.3,288.1,190.8z"/>
<path class="st3" d="M763.5,206C684.4,124.7,576.7,79.3,463.3,79.3c-7,0-14,0.2-21,0.5c27.5-12.5,49.7-41.5,14.2-46.6
	c-122.3-17.6-334.4,46-316.5,198.6C76.7,308.7,44.6,399.4,44.6,498c0,231.2,187.5,418.7,418.7,418.7c217.4,0,398.9-166.6,417.2-383
	c45.8-52.4,38.3-126.7,10.9-186C867.1,295,822.9,243.4,763.5,206z M375.5,71c-48.3,32-75,68.7-84.1,101.2
	c-13.1,47.3,9.4,90.8,58.8,100.6c32.1,6.4,76.3-2.2,127.8-34.1c-45.9,103.4-163.4,145.8-250.2,68.5C96.6,190.3,253.1,82,375.5,71z
	 M154.6,279c10.1,19.8,25.4,39.4,46.5,58.2c-16.1,24.1-22,81.1-44,93.2c-18.4,10.1-49.9-19.5-59.5-30.3
	C109.4,356,128.9,315.2,154.6,279z M88.3,446.5c18.8,15.4,43.5,29.1,68.7,25.6c3.9,27.9,25.5,78.7,14.5,101.8
	c-25.3,4.6-50.1,11.8-74,21.4C84.7,547,81.6,496.1,88.3,446.5z M463.3,876.4c-157,0-297.4-96.9-353.4-242.8
	c190.1-78.4,408.3,28.5,462.9,226.7C538.1,870.8,501.4,876.4,463.3,876.4z M571.7,755.8c-22-37.1-49.8-69.6-81.8-96.6
	c6.8-4.7,11.2-12.6,11.2-21.5c0-14.5-11.7-26.2-26.2-26.2c-11.6,0-21.5,7.6-24.9,18.1c-30.6-19.7-63.9-35.1-98.8-45.6
	c2.3-3.9,3.7-8.5,3.7-13.4c0-14.5-11.7-26.2-26.2-26.2c-15.3,0-27.3,13.1-26.1,28.3c-28.8-4.7-58.4-6.2-88.1-4.2
	c5.1-39.5-24.4-94.7-17.3-120.6c18-22.8,28.7-79.3,37.6-87.7c145.2,77.2,263.1-21,300.9-165.6c6.6-25.3-15.9-38.2-31.3-25.1
	c-63.3,54.3-114.2,70.3-146.2,63.9c-26.4-5.3-34.9-25.8-28-50.5c4.3-15.6,14.4-32.6,31.2-49.5c32.4-9.1,66.6-13.9,102-13.9
	c92.5,0,177.3,33.2,243.1,88.4c0,7,3.1,10.7,6.5,16.1c44.5,70.7,51.7,127.4,39.5,161.4c-8.6,24.1-27.5,36-52,25.1
	c-29.8-13.2-62.1-55.7-82.4-136.6c-4.9-19.7-32.6-20.3-38.7-1.2c-31.3,81-41.6,175.3,19.4,245.5c37,42.5,96.4,68.5,152.6,68.6
	c-23.5,29.3-66.8,43.2-72.8,89.3C644.3,708.7,590.5,732,571.7,755.8z M610.6,846.7c-4.7-16.6-10.4-32.9-17.3-48.7
	c17.6-32.5,61.2-41.5,99.4-75.5c12.1,15,29.7,26,47,34C703.5,795.2,659.4,826.1,610.6,846.7z M766.7,724.3
	c-15-5.6-50.6-22.8-48.4-42.6c3.7-33.2,78.9-59,76.8-100.2c14.9-3.4,28.3-8,40.3-13.8C824.6,625.6,800.6,678.9,766.7,724.3z
	 M846.4,511.5c-57,57.4-166.5,38.9-217.3-19.6c-35.9-41.3-40-94.9-29.6-146.4c23.7,55.8,54.8,88.3,84.7,101.6
	c46.1,20.5,89.5-1.9,106.1-48.2c11.4-31.8,10.8-77.2-10.2-131.2c33.6,28.6,59.1,62.5,75,96.8C876.2,410.5,885.5,472.1,846.4,511.5z"
	/>
<path class="st4" d="M690.8,195.5c5.3,4,10.5,8.2,15.7,12.4c0-3,0.7-6.1,2.2-9c5-9.9,17.1-13.8,27-8.7c9.6,4.9,18.9,10.2,27.9,15.9
	c-12.4-12.7-25.6-24.7-39.5-35.8C708.8,171.3,695.8,181.2,690.8,195.5z"/>
<path class="st4" d="M835.4,567.6c-1.3,7.2-2.9,14.4-4.6,21.5c16.7-6.6,32.5-15.6,46.5-27.3c1.4-9.3,2.5-18.6,3.3-28.1
	C867.9,548.1,852.6,559.3,835.4,567.6z"/>
<path class="st4" d="M126.1,249.7c3.7,16,9.8,31,17.9,45c3.4-5.3,6.9-10.6,10.6-15.7c-7.5-14.8-12.6-30.7-14.5-47.2
	C135.3,237.7,130.6,243.6,126.1,249.7z"/>
<path class="st4" d="M442.4,79.8c-35.9,16.4-62.5,34.9-81,53.6c11.6-3.2,23.5-5.9,35.5-8.1c22.5-16.2,66.6-39.8,82.6-45.8
	C467.1,79.1,454.7,79.2,442.4,79.8z"/>
<path class="st1" d="M154.6,279c-25.7,36.2-45.2,77.1-57,121.1c9.6,10.7,41.1,40.4,59.5,30.3c21.9-12.1,27.9-69.1,44-93.2
	C180,318.4,164.7,298.8,154.6,279z"/>
<path class="st1" d="M88.3,446.5c-6.7,49.6-3.7,100.5,9.2,148.8c23.8-9.6,48.7-16.8,74-21.4c11-23.1-10.5-73.8-14.5-101.8
	C131.8,475.7,107.2,461.9,88.3,446.5z"/>
<path class="st1" d="M396.5,645.2c-89.9-45.5-193.7-49.9-286.6-11.6c56,145.9,196.4,242.8,353.4,242.8c38.1,0,74.8-5.6,109.5-16.1
	C547,766.6,483.5,689.2,396.5,645.2z"/>
<path class="st2" d="M142.8,699.4c68.2,108.5,188.5,177,320.5,177c38.1,0,74.8-5.6,109.5-16.1C516.3,804.6,426.5,754.5,319.5,725
	C257.8,708,197.6,699.7,142.8,699.4z"/>
<path class="st1" d="M692.7,722.5c-38.2,33.9-81.8,43-99.4,75.5c6.9,15.8,12.7,32.1,17.3,48.7c48.8-20.6,92.9-51.5,129.1-90.2
	C722.4,748.6,704.8,737.5,692.7,722.5z"/>
<path class="st1" d="M718.3,681.7c-2.2,19.8,33.4,37.1,48.4,42.6c34-45.4,57.9-98.8,68.7-156.7c-12,5.8-25.4,10.5-40.3,13.8
	C797.1,622.7,722,648.5,718.3,681.7z"/>
</svg>
