<?xml version="1.0" encoding="utf-8"?>
<!-- Generator: Adobe Illustrator 21.0.0, SVG Export Plug-In . SVG Version: 6.00 Build 0)  -->
<svg version="1.1" id="Layer_1" xmlns="http://www.w3.org/2000/svg" xmlns:xlink="http://www.w3.org/1999/xlink" x="0px" y="0px"
	 viewBox="0 0 932 970" style="enable-background:new 0 0 932 970;" xml:space="preserve">
<style type="text/css">
	.st0{fill:#FFFFFF;}
	.st1{fill:#C89618;}
	.st2{fill:#FFD15C;}
	.st3{fill:#DB2626;}
	.st4{fill:#E03834;}
	.st5{fill:#B82626;}
	.st6{fill:#A72121;}
</style>
<circle class="st0" cx="464.7" cy="486.6" r="447.1"/>
<path class="st1" d="M417.9,98.9c-28.1,12-48.4,37.4-62.4,63.6c-18.5,34.7-20.5,82.6,18.7,103.5c39.8,21.2,92.3,5.2,131.4-10.4
	c40-16,76.8-30.6,112.9-8.8c-14.2-40.2-35.6-75-60.8-101.6C522.8,108.6,468.9,77.1,417.9,98.9z"/>
<path class="st2" d="M343.2,201.7c-8.4,20.3,0.6,56.5,26.2,70.2c39.8,21.2,96,8.9,135.1-6.7c39.8-15.9,77.5-39.9,113.4-18.5
	c-53.7-34.2-119.8-54.4-191.3-54.4C397.8,192.2,369.8,195.5,343.2,201.7z"/>
<path class="st3" d="M459.2,643.4c-11.8,41.5-52.6,79.7-88.5,102.8c76.5,72.4,229.6,62.2,303.8-7.7c3.9-34.6-12.3-99.3-37.3-124
	C590.3,567.9,514,658.3,459.2,643.4z"/>
<path class="st4" d="M459.2,643.4c26.4,70.8,136.8,116.9,215.3,95c8-55.2-15.9-102.9-37.3-124C590.3,567.9,514,658.3,459.2,643.4z"
	/>
<path class="st5" d="M530.1,73.1c-39-21.7-84-29.9-128-11.2c-8.6,3.7-17.1,8.4-25.2,14.1C182.8,115.9,42.8,287.5,42.8,486.2
	C42.8,717.5,230.2,905,461.5,905s418.7-187.5,418.7-418.7C880.2,281.4,731.8,106.4,530.1,73.1z M355.4,162.5
	c14-26.3,34.3-51.7,62.4-63.6c51-21.8,105,9.7,139.8,46.4c25.2,26.6,46.6,61.4,60.8,101.6c-36-21.9-72.8-7.2-112.9,8.8
	c-39.1,15.6-91.7,31.6-131.4,10.4C335,245.1,336.9,197.2,355.4,162.5z M307.5,175c-14.7,53.3,3.7,108.1,56.5,130.6
	c-23,39.7-30.4,121.6-69.1,142.8c-28.7,15.7-68-12.9-88.3-31.2c-18.5-16.6-26-28.5-40-47C183.7,287.8,243.3,225.3,307.5,175z
	 M420.2,633.7c-13.1,42.4-57,68.5-92.3,90.5c-101.8-35.1-162.3-189-161.8-290.1c35.1,36,93,76.2,144.3,51.5
	C332.3,537.5,438.6,574.3,420.2,633.7z M459.2,643.4c54.8,14.9,131.1-75.5,178-29c25,24.8,41.2,89.4,37.3,124
	c-74.1,69.9-227.3,80.1-303.8,7.7C406.5,723.1,447.3,684.9,459.2,643.4z M461.5,864.7C252.5,864.7,83,695.3,83,486.2
	c0-122.6,58.9-236.7,158.3-307.8c-55.7,51.2-100,111.5-114.8,187.3c-1.6,6.5,0.5,14,3.2,20c-20,131.7,53.9,335.9,190,378
	c3.6,1.1,7.8,1.2,12.5,0.5c83.2,91.9,243.8,90.5,342.3,25.3c4.9-0.2,9.8-0.6,14.9-1C625.9,836.3,547,864.7,461.5,864.7z
	 M744.7,737.3c-10.4,2.9-20.6,5.3-30.6,7.2c6.3-42.2-12.8-113.4-38.9-147.4c58.1-21.9,107.7-66.7,164.2-91.8
	C835.1,594.1,800,674.9,744.7,737.3z M634.4,565.9c-73.1-26-140.4,55.9-174.4,33.4C444.4,541.9,342,490.6,346.3,454.5
	c21.8-30.4,44.1-135.6,66.2-138.6c39.7,1.6,71.5-8.5,107.8-23c41.5-16.6,78-31.1,114.5,33.8c16.2,28.8,42.4,13.6,40.6-6.1
	c-6.9-73.2-35.3-138.5-73.9-186.2c135.5,54,228.6,181.6,237.7,327.7C781.5,482.3,680.2,565.8,634.4,565.9z"/>
<path class="st6" d="M198.5,201.2c-26.5,29-48.6,60.4-64.4,95.1c16.5-28.4,36.7-54.5,59.8-77.6c14.7-14.7,30.5-28.1,47.4-40.2
	c35.5-32.6,77.5-63.3,124.3-93.5c3.7-3.2,7.5-6.1,11.3-8.8c-13.2,2.7-26.1,6-38.8,9.9C288.1,119.4,238.8,157,198.5,201.2z"/>
<path class="st6" d="M567.7,81.1c-12.2-3.2-24.6-5.8-37.3-7.9c19.9,11.1,38.9,26.1,56.3,44.5c5.1,5.4,10,11,14.8,16.9
	c9,3.6,17.8,7.5,26.4,11.7c-9.3-13.6-19.6-26.4-30.9-38.3C587.9,98.3,578.1,89.3,567.7,81.1z"/>
<path class="st3" d="M307.5,175c-64.2,50.3-123.8,112.8-140.9,195.3c14,18.4,21.5,30.4,40,47c20.4,18.3,59.7,46.9,88.3,31.2
	c38.7-21.2,46.1-103.1,69.1-142.8C311.2,283.1,292.7,228.2,307.5,175z"/>
<path class="st4" d="M166.6,370.3c14,18.4,21.5,30.4,40,47c20.4,18.3,59.7,46.9,88.3,31.2c38.7-21.2,46.1-103.1,69.1-142.8
	C317,300.2,178.5,312.7,166.6,370.3z"/>
<path class="st3" d="M310.5,485.6c-51.3,24.7-109.2-15.5-144.3-51.5c-0.6,101.1,59.9,255,161.8,290.1c35.3-22,79.1-48.1,92.3-90.5
	C438.6,574.3,332.3,537.5,310.5,485.6z"/>
<path class="st4" d="M310.5,485.6c-33.4,57-58.8,212.3,17.5,238.6c35.3-22,79.1-48.1,92.3-90.5C438.6,574.3,332.3,537.5,310.5,485.6
	z"/>
<path class="st3" d="M714.1,744.4c10-1.9,20.2-4.3,30.6-7.2c55.3-62.4,90.4-143.2,94.8-232c-56.5,25.1-106.1,70-164.2,91.8
	C701.3,631.1,720.4,702.3,714.1,744.4z"/>
<path class="st4" d="M798.9,657.8c23.5-46.2,37.8-97.8,40.6-152.5c-56.5,25.1-106.1,70-164.2,91.8
	C697.6,626.2,761.5,688.5,798.9,657.8z"/>
</svg>
