<?xml version="1.0" encoding="utf-8"?>
<!-- Generator: Adobe Illustrator 21.0.0, SVG Export Plug-In . SVG Version: 6.00 Build 0)  -->
<svg version="1.1" id="Layer_1" xmlns="http://www.w3.org/2000/svg" xmlns:xlink="http://www.w3.org/1999/xlink" x="0px" y="0px"
	 viewBox="0 0 932 970" style="enable-background:new 0 0 932 970;" xml:space="preserve">
<style type="text/css">
	.st0{fill:#FFFFFF;}
	.st1{fill:#E03834;}
	.st2{fill:#DB2626;}
	.st3{fill:#FFD15C;}
	.st4{fill:#C89618;}
	.st5{fill:#B82626;}
	.st6{fill:#A72121;}
</style>
<circle class="st0" cx="467.6" cy="485.6" r="447.1"/>
<path class="st1" d="M264,800.4c1.6-7.5,2.7-15.1,3.4-22.8c-6.9,4.1-14.4,7.3-22.3,9.5C251.3,791.7,257.6,796.1,264,800.4z"/>
<path class="st2" d="M123.2,630.2c79.2,20.9-6.2-204-12-262.4C83.9,453.2,88.2,547.7,123.2,630.2z"/>
<path class="st2" d="M369.1,118.4c-55.1,15.5-105,43.1-146.8,79.8C240.2,194.5,412.4,154,369.1,118.4z"/>
<path class="st2" d="M412.8,108.8c41.9,80.2-152.7,123.5-194.7,131c-36.8,6.6-54.8,23.7-62.7,45.4c-34.8,95.5,127,394.8-24,388.7
	c14.1,38.2,56.9,85.4,102.4,75.5c9-2,16.5-6.7,21-14.4c5-8.5,7.1-20.5,4.9-36.2c-18.6-90.8-54.2-134.8-62.3-241
	C177,191.1,564.6,271.4,508.8,148.3C636.3,298.3,222.2,219.4,239,457.8c9.5,135.2,80.8,197.1,65.7,330.3c-2.7,24.1-10.2,52-29.8,68
	c28.6,9.3,63.3,10.3,89-7.4c48.6-33.4,27.9-104.6,6.5-147.4c-115.4-231.4-71.1-313.8,12.6-355.5c79.3-39.5,210-27.1,218.7-129.9
	C610.6,111.4,503.1,94.7,412.8,108.8z"/>
<path class="st1" d="M197.4,458c-0.9-11.9-1-23-0.3-33.6c-12.7-12.2-25.3-22.7-37.7-31.1c24.5,123.5,83.4,285.2-28,280.7
	c14.1,38.2,56.9,85.4,102.4,75.5c9-2,16.5-6.7,21-14.4c5-8.5,7.1-20.5,4.9-36.2C241.2,608.2,205.6,564.1,197.4,458z"/>
<path class="st1" d="M240.3,472.3c13.3,125.3,78.9,187.4,64.4,315.8c-2.7,24.1-10.2,52-29.8,68c28.6,9.3,63.3,10.3,89-7.4
	c82.3-56.4-0.1-156.5-23.5-212.8C309.6,571.9,275.2,516.1,240.3,472.3z"/>
<path class="st3" d="M627.7,490.8c-17.7-13.7-61.8-23.1-52.6-62.4c3.3-14.1,27.1-15.1,33.5-21.1c-9.5,3.9-28.9-2.1-33.5-10.8
	c-9.4-17.7-8.3-44.3-2.9-71.1c-54,26.1-117.9,30-171.2,56.5c-63.8,31.8-95,99.9,5.5,301.5c26.6,53.3,41.7,124.5,6.4,173.2
	c14.5,2.3,29.3,3.7,44.4,4.3c-23.2-32.1-19.8-81.8-0.9-118c27-51.5,73.2-51.2,120.5-56.6c33.6-3.8,44.2-10.4,27.2-48.2
	c-5.7-12.8-2-23.7,7.4-33.2c10.1-10.2,6.5-18.4-3.8-28.9c7.4-0.2,22.2-12.1,11.6-19.7c-21.1-15.2-14-42.8,7.6-52.7
	C635.5,499.8,633.4,495.1,627.7,490.8z"/>
<path class="st4" d="M412.9,856.6c14.5,2.3,29.3,3.7,44.4,4.3c-23.2-32.1-19.8-81.8-0.9-118c18.9-36.1,47.4-46.8,79-51.8
	c-41.6,6.1-79,23.1-108.2,47.5C437.6,780,436.9,823.5,412.9,856.6z"/>
<path class="st5" d="M537,409.4c6.9,19.4-48.8,21.5-55.6,20l47.3,11.5C545.8,445.1,562.2,432,537,409.4z"/>
<path class="st5" d="M471.8,64c-115.6,0-220.3,46.9-296.1,122.6C56.8,305.6,20.6,485.4,83.9,640.6c-0.5,2.3-0.7,4.8-0.3,7.5
	c8,53.9,45.1,113.1,96.1,134.7c16.6,16.2,34.6,31,53.8,44.3c-6.8-1.6-15-5.3-25-11.8c-20.1-14.3-43.5,14-25.4,31
	c48.8,45.8,126.3,75.3,190.1,43.5c31.6,7.6,64.6,11.7,98.5,11.7c231.2,0,418.7-187.5,418.7-418.7S703,64,471.8,64z M369.1,118.4
	c43.3,35.6-128.8,76.1-146.8,79.8C264,161.5,314,133.9,369.1,118.4z M123.2,630.2c-35-82.6-39.2-177-12-262.4
	C117,426.2,202.4,651.2,123.2,630.2z M262.4,798.1c-5.1-3.4-10.1-6.9-15-10.5c6.3-1.8,12.3-4.3,17.8-7.6
	C264.6,786,263.7,792.1,262.4,798.1z M364,848.8c-25.7,17.6-60.4,16.7-89,7.4c19.6-16,27-44,29.8-68c15-133.3-56.2-195.1-65.7-330.3
	c-16.8-238.3,397.3-159.4,269.8-309.5C564.6,271.4,177,191.1,197.4,458c8.1,106.2,43.7,150.2,62.3,241c2.2,15.7,0.1,27.6-4.9,36.2
	c-4.5,7.6-12,12.4-21,14.4c-45.5,9.8-88.4-37.3-102.4-75.5c151,6.1-10.8-293.2,24-388.7c7.9-21.6,25.8-38.8,62.7-45.4
	c42-7.5,236.6-50.9,194.7-131c90.2-14.1,197.8,2.6,189,107.2c-8.7,102.8-139.4,90.4-218.7,129.9c-83.6,41.7-128,124-12.6,355.5
	C391.8,744.2,412.6,815.4,364,848.8z M456.4,743c-18.9,36.1-22.4,85.9,0.9,118c-15-0.6-29.8-2-44.4-4.3
	c35.3-48.7,20.2-119.8-6.4-173.2C306,481.8,337.2,413.7,401,381.9c53.3-26.6,117.2-30.5,171.2-56.5c-5.4,26.8-6.5,53.4,2.9,71.1
	c4.6,8.7,24,14.7,33.5,10.8c-6.4,6-30.2,7-33.5,21.1c-9.1,39.2,34.9,48.7,52.6,62.4c5.6,4.3,7.7,9-0.8,13
	c-21.6,9.9-28.7,37.5-7.6,52.7c10.6,7.6-4.2,19.5-11.6,19.7c10.3,10.6,13.9,18.8,3.8,28.9c-9.4,9.5-13.1,20.4-7.4,33.2
	c16.9,37.8,6.3,44.4-27.2,48.2C529.6,691.7,483.3,691.5,456.4,743z M499.3,860.2c-18.8-19.7-22.8-45.9-15.6-86.2
	c6.1-18,15.9-30.3,32.9-37.4c19.6-8.2,43.5-8.3,64.2-10.7c54.9-6.2,84.7-34.3,60.3-96.6c-8.3-20,26.9-28.1-4.1-47.1
	c11.9-1.7,23-24.5,10.1-34.3c-6-4.5-13.9-8.5-9.6-12.5c70.2-46.5,25.9-55.2-12.3-87c-2-1.6-19.6-18.1-17.6-18.4
	c30.9-4.5,37.9-21.8,47.1-35.6c-58.9,20.5-45.3-27-39.8-65.9c1.7-12.3,7.7-24.3,14.5-36.5c36-64.7,29.5-116.1,0.3-153.4
	c134.2,61.6,220.7,195.7,220.7,344.1C850.3,681.1,696.9,846,499.3,860.2z"/>
<path class="st6" d="M76.9,622.4c2.2,6.1,4.5,12.2,6.9,18.2c2.7-11.6,15.5-19,27.3-14c4.4,1.5,8.4,2.7,12,3.7
	c-2.5-5.8-4.8-11.8-7-17.7C101.5,606.7,86.1,611.8,76.9,622.4z"/>
<path class="st6" d="M386.6,881.9c-4.2,2.9-8.7,5.5-13.4,7.8c7.1,1.7,14.3,3.3,21.6,4.6l0.2-0.1c14.8-10.2,26.1-22.2,34.4-35.4
	c-5.6-0.6-11.1-1.4-16.6-2.2C406.1,866,397.4,874.5,386.6,881.9z"/>
<path class="st6" d="M179.7,782.7c16.6,16.2,34.6,31,53.8,44.3c19.4,4.5,25.5-13,29-29c-5.1-3.4-10.1-6.9-15-10.5
	C225,793.9,201,791.7,179.7,782.7z"/>
</svg>
