<svg xmlns="http://www.w3.org/2000/svg" viewBox="0 0 246.41 246.41"><defs><style>.cls-1{fill:none;stroke:#dddcdd;stroke-miterlimit:22.93;stroke-width:4px;opacity:0.1;}.cls-2,.cls-5,.cls-6{fill:#fff;}.cls-3,.cls-4,.cls-7{fill:#b3b4b4;}.cls-3{fill-rule:evenodd;}.cls-5{font-size:30px;}.cls-5,.cls-6,.cls-7{font-family:Albertus-Medium, Albertus Medium;}.cls-6{font-size:30px;}.cls-7{font-size:24px;}</style></defs><title>theYearLogo</title><g id="Réteg_2" data-name="Réteg 2"><g id="Isolation_Mode" data-name="Isolation Mode"><circle class="cls-1" cx="123.21" cy="123.2" r="121.21" transform="translate(-0.44 0.45) rotate(-0.21)"/><path class="cls-2" d="M41.14,67.78l3.2,5.84,3.22-4.41Zm-5.46-4.26L53.45,67l.95.17.94.16.89.13.9.1.86.09.84,0,.82.05h.79l-3.1,4.35L57,71.88l-.36-.22-.37-.2-.41-.2-.43-.18L55,70.91l-.48-.16-.5-.16-.45-.08-.46-.1-.45-.1-.44-.09-.46-.1-.45-.1-.46-.1-.45-.1L45.74,76.2l.39.69.33.61.29.53.26.45.2.36.16.29.13.2.07.11.3.47.31.41.31.39.3.36.32.32.32.29.3.26.32.21-3.22,4.44-.14-.53-.19-.59-.23-.63L46,84.13l-.31-.75-.38-.81-.42-.86-.47-.93L35.58,63.66Z"/><polygon class="cls-2" points="56.58 52.98 56.09 53.38 55.66 53.74 55.28 54.05 54.96 54.31 54.7 54.52 54.52 54.68 54.39 54.8 54.31 54.85 54.16 55.01 54.01 55.17 53.87 55.33 53.72 55.49 53.61 55.66 53.48 55.84 53.36 56.02 53.26 56.2 53.16 56.4 53.08 56.59 52.99 56.79 52.92 56.99 52.84 57.2 52.79 57.42 52.73 57.64 52.67 57.85 51.2 55.09 58.25 49.02 58.54 49.98 58.83 50.94 59.12 51.89 59.42 52.81 59.72 53.72 60.02 54.63 60.33 55.5 60.64 56.37 60.96 57.23 61.28 58.07 61.59 58.89 61.91 59.71 62.24 60.51 62.57 61.28 62.91 62.05 63.24 62.81 65 61.17 65.2 60.98 65.39 60.78 65.56 60.59 65.73 60.39 65.89 60.17 66.03 59.97 66.18 59.77 66.31 59.55 66.42 59.34 66.52 59.12 66.62 58.91 66.7 58.67 66.78 58.46 66.84 58.23 66.9 58 66.94 57.75 68.34 60.59 61.13 67.31 61 66.57 60.84 65.78 60.66 64.93 60.43 64.04 60.15 63.1 59.86 62.1 59.53 61.07 59.16 59.97 58.84 59.11 58.52 58.23 58.19 57.36 57.88 56.48 57.54 55.6 57.23 54.74 56.91 53.86 56.58 52.98"/><path class="cls-2" d="M69.31,26.43l2.86-1.58,0,.39v1.15l0,.39,0,.37-.09.36-.08.38-.12.36-.13.36-.14.36-.17.34-.19.35L71,30l-.23.33-.25.34-1.2.67.06-.36.06-.36,0-.35.05-.35,0-.33,0-.33V28.05l0-.29,0-.28,0-.27,0-.27-.06-.26ZM66.18,34.3l10.58-5.86L77,32.3l-.42,0-.42,0-.4,0-.38.07-.38.06-.36.07-.37.09-.34.08-.33.1-.32.1-.32.11-.3.11-.29.13-.27.13-.28.14-.25.15-.65.36L74.68,41l6.17-3.42-.16,3.69-.7.18-.7.17-.66.19L78,42l-.61.2-.58.22-.56.23-.52.23,4,7.19.49-.27.48-.29.47-.31.48-.31.47-.32.47-.35.46-.34.46-.36.45-.38.46-.39.44-.4.44-.4.44-.43.43-.44.42-.44.44-.47.37,4.08L77.07,54l-.17-.7-.19-.71-.23-.69-.24-.69L76,50.49l-.28-.68-.32-.66L75,48.5l-5.33-9.63-.38-.66-.4-.64-.42-.6-.42-.59-.45-.57-.46-.53-.47-.5Z"/><polygon class="cls-2" points="83.59 32.47 87.97 31.06 88.04 31.46 88.1 31.78 88.14 32.02 88.19 32.18 88.23 32.3 88.3 32.46 88.42 32.64 88.56 32.89 88.94 33.49 89.43 34.27 93.74 40.82 93.53 33.19 93.51 32.63 93.46 32.08 93.42 31.58 93.35 31.1 93.26 30.64 93.16 30.22 93.05 29.82 92.92 29.44 96.04 28.43 95.9 28.91 95.78 29.4 95.68 29.92 95.61 30.44 95.55 30.99 95.52 31.55 95.51 32.11 95.51 32.7 95.87 45.04 93.51 45.8 88.25 37.8 87.94 37.34 87.63 36.9 87.32 36.46 87.02 36.05 86.72 35.66 86.43 35.28 86.13 34.92 85.84 34.58 85.55 34.26 85.26 33.94 84.97 33.65 84.69 33.38 84.41 33.13 84.14 32.89 83.86 32.67 83.59 32.47"/><polygon class="cls-2" points="110.3 18.4 115.46 18.3 115.36 18.61 115.26 18.92 115.17 19.23 115.08 19.54 115.01 19.84 114.94 20.16 114.88 20.48 114.82 20.81 114.78 21.13 114.74 21.46 114.71 21.79 114.68 22.12 114.65 22.79 114.65 23.48 114.72 28.03 124.35 27.86 124.28 23.88 124.25 23.12 124.19 22.38 124.12 21.65 124 20.93 123.88 20.22 123.72 19.51 123.53 18.84 123.31 18.17 128.43 18.07 128.33 18.39 128.24 18.72 128.16 19.05 128.08 19.4 128.01 19.74 127.94 20.1 127.88 20.46 127.84 20.84 127.8 21.21 127.75 21.6 127.72 21.99 127.69 22.4 127.67 23.23 127.67 24.1 127.85 34.49 127.87 34.97 127.88 35.41 127.91 35.86 127.94 36.29 127.98 36.71 128.03 37.13 128.07 37.53 128.13 37.92 128.2 38.29 128.27 38.65 128.34 39.02 128.43 39.36 128.52 39.69 128.62 40.01 128.72 40.33 128.83 40.62 123.7 40.72 123.8 40.4 123.89 40.07 123.98 39.73 124.06 39.39 124.13 39.04 124.19 38.68 124.25 38.32 124.31 37.95 124.35 37.57 124.39 37.18 124.42 36.78 124.44 36.38 124.47 35.54 124.47 34.68 124.39 30.71 114.78 30.89 114.84 34.59 114.87 35.45 114.92 36.28 115 37.1 115.11 37.89 115.17 38.28 115.24 38.65 115.31 39.03 115.4 39.4 115.49 39.78 115.59 40.14 115.69 40.5 115.79 40.84 110.69 40.95 110.79 40.64 110.89 40.34 110.97 40.02 111.05 39.71 111.12 39.38 111.19 39.03 111.25 38.68 111.31 38.32 111.35 37.96 111.38 37.59 111.41 37.2 111.44 36.81 111.47 35.99 111.47 35.14 111.26 24.17 111.23 23.35 111.19 22.55 111.15 22.18 111.11 21.79 111.06 21.43 111 21.06 110.93 20.71 110.86 20.35 110.79 20.02 110.7 19.67 110.61 19.34 110.51 19.02 110.41 18.71 110.3 18.4"/><path class="cls-2" d="M140.22,40.4l.36-.22.36-.23.33-.23.32-.26.3-.27.28-.29.26-.3.24-.32.22-.33.2-.33.19-.36.15-.38.15-.39.13-.4.1-.42.09-.43,0-.29,0-.27,0-.28V33.32l0-.26-.05-.26,0-.26-.06-.26,0-.26-.09-.24-.09-.25-.1-.26-.1-.24-.13-.26-.14-.26-.15-.23-.16-.23-.17-.2-.17-.2-.19-.18-.19-.17-.2-.16-.21-.13-.22-.13-.23-.11-.25-.09-.24-.09-.26-.07-.26-.06-.23,0-.22,0h-.44l-.21,0-.21,0-.2.06-.21.07-.18.09-.2.1-.19.12-.19.12-.17.15-.19.17-.17.17-.16.19-.15.16-.13.17-.12.18-.13.18-.12.19-.1.19-.1.2-.1.19-.09.21-.09.22-.07.22-.07.21-.07.23-.06.23,0,.25-.06.24,0,.34,0,.31,0,.32v1.22l0,.31,0,.29.05.28.06.28.07.29.1.27.09.26.12.27.13.26.14.28.16.27.17.25.19.23L137,39l.2.2.21.19.22.17.25.16.24.14.25.13.27.12.27.08.29.09.3.07.32,0Zm.63-14,.39.08.38.09.37.1.36.13.35.13.33.16.32.16.3.19.3.2.29.2.28.23.25.23.25.26.23.27.23.29.22.29.2.32.17.31.16.32.16.33.11.33.12.34.1.34.07.36.06.36,0,.36,0,.38v.75l0,.39,0,.39-.06.4-.06.34-.09.34-.07.33-.08.33-.11.3-.11.3-.12.31-.11.29-.13.27-.15.27-.14.26-.16.26-.16.25-.17.23-.17.23-.19.23-.19.2-.2.22-.22.18-.21.19-.23.19-.23.16-.25.17-.24.14-.26.15-.28.14-.27.13-.29.12-.29.11-.28.1L141,42l-.32.08-.4.1-.41.07-.37.06-.38,0h-.7l-.33,0-.33,0-.39-.09-.36-.09-.36-.1-.36-.13-.34-.13-.31-.15-.32-.16-.29-.19-.29-.19-.27-.21-.26-.23-.26-.23-.23-.26-.23-.28-.2-.29-.2-.3-.18-.29-.16-.31-.14-.31-.13-.31-.12-.34-.1-.33-.07-.33-.07-.34,0-.35L132,36V34.85l0-.38.06-.38.06-.41.07-.42.1-.4.1-.39.12-.39.13-.37.14-.36L133,31l.16-.33.18-.32.18-.31.2-.29.22-.29.22-.28.23-.25.24-.25.26-.23.26-.23.29-.2.29-.2.3-.19.32-.17.32-.16.34-.15.35-.14.36-.12.37-.11.39-.1.39-.09.42-.07.42-.06.43-.06.43,0,.1,0Z"/><polygon class="cls-2" points="155.46 33.78 156.07 33.48 156.61 33.22 157.06 32.99 157.43 32.8 157.72 32.66 157.93 32.56 158.06 32.48 158.11 32.46 158.29 32.4 158.47 32.36 158.64 32.31 158.81 32.27 159 32.24 159.17 32.23 159.35 32.21 159.52 32.21 159.69 32.21 159.88 32.23 160.05 32.26 160.23 32.28 160.4 32.31 160.57 32.37 160.75 32.41 160.93 32.48 161.12 32.56 161.29 32.64 161.47 32.74 161.64 32.85 161.8 32.95 161.96 33.06 162.1 33.19 162.24 33.32 162.37 33.45 162.5 33.61 162.62 33.75 162.73 33.91 162.84 34.09 162.92 34.26 163.02 34.45 163.09 34.63 163.18 34.84 163.24 35.02 163.3 35.22 163.34 35.41 163.38 35.61 163.41 35.8 163.43 36 163.43 36.19 163.43 36.39 163.41 36.58 163.4 36.77 163.37 36.97 163.32 37.16 163.28 37.36 163.22 37.55 163.15 37.73 159.89 46.19 159.79 46.51 159.69 46.84 159.61 47.17 159.55 47.52 159.5 47.85 159.48 48.2 159.46 48.56 159.48 48.92 155.71 47.48 155.93 47.22 156.13 46.97 156.32 46.71 156.49 46.45 156.65 46.19 156.79 45.93 156.91 45.67 157.03 45.4 160.21 37.13 160.24 37.01 160.28 36.9 160.3 36.78 160.31 36.66 160.33 36.55 160.33 36.44 160.31 36.32 160.3 36.2 160.27 36.09 160.23 35.99 160.18 35.87 160.14 35.76 160.01 35.53 159.84 35.31 159.68 35.12 159.52 34.97 159.33 34.81 159.15 34.66 158.94 34.53 158.74 34.4 158.51 34.29 158.28 34.2 157.95 34.09 157.6 34 157.24 33.94 156.88 33.9 156.51 33.9 156.13 33.91 155.74 33.97 155.35 34.04 152.15 42.37 152 42.8 151.85 43.22 151.71 43.64 151.58 44.06 151.46 44.48 151.35 44.9 151.25 45.31 151.16 45.72 147.44 44.29 147.6 44.12 147.77 43.93 147.93 43.73 148.1 43.51 148.26 43.3 148.42 43.06 148.58 42.82 148.72 42.56 149.03 42.01 149.33 41.42 149.6 40.77 149.89 40.1 152.9 32.23 152.95 32.1 152.99 31.92 153.05 31.69 153.11 31.4 153.18 31.07 153.25 30.67 153.32 30.22 153.41 29.73 156.55 30.93 155.46 33.78"/><polygon class="cls-2" points="172.78 31.5 176.84 32.79 176.4 33.32 175.98 33.85 175.59 34.37 175.2 34.91 174.84 35.43 174.51 35.94 174.19 36.46 173.89 36.98 167.65 48.27 167.46 48.6 167.29 48.92 167.14 49.22 167 49.51 166.88 49.77 166.77 50.03 166.68 50.26 166.61 50.46 166.55 50.67 166.5 50.92 166.44 51.18 166.4 51.45 166.34 51.76 166.31 52.07 166.26 52.42 166.24 52.79 161.78 50.31 162.26 50.01 162.69 49.7 163.09 49.36 163.45 49.05 163.61 48.89 163.77 48.73 163.91 48.57 164.06 48.4 164.18 48.24 164.29 48.08 164.41 47.92 164.49 47.75 171.64 34.88 171.81 34.53 171.99 34.17 172.15 33.78 172.29 33.38 172.43 32.95 172.56 32.48 172.68 32.01 172.78 31.5"/><path class="cls-2" d="M175.49,56.14,178,52.52l-3.3-2.29-.29.19-.29.2-.26.2-.23.2-.22.2-.2.2-.17.21-.16.21-.16.23-.11.23-.11.25-.05.23,0,.11V53l0,.1v.12l0,.11v.12l0,.11,0,.12.09.21.11.23.13.22.17.22.21.21.23.22.26.22.29.21.15.1.16.1.18.09.18.09.38.17ZM176,44.45l2.26-1.79.56.25.52.21.45.22.42.19.34.17.32.17.24.15.22.13.32.23.29.24.27.25.26.24.23.26.2.26.19.27.16.26.14.28.12.29.08.28.08.29,0,.31,0,.3v.3l0,.32,0,.21-.07.25-.07.24-.12.26-.13.28-.14.27-.18.3-.2.31-5,7.41-.08.11-.07.16-.08.2-.09.25-.22.62-.26.79-2.89-2,1.25-1.79-.37,0h-.39l-.39,0-.41,0-.41,0-.44,0-.43,0-.43.05-.36-.18-.3-.16-.26-.14-.21-.13-.14-.11-.14-.12-.15-.12-.13-.13-.11-.12-.12-.15-.11-.14-.1-.15-.1-.16-.09-.15-.09-.18-.08-.17-.08-.17-.05-.19-.06-.19-.06-.2,0-.2,0-.19,0-.19v-.73l0-.17,0-.18,0-.17.06-.17.06-.16.07-.16.07-.16.1-.16.1-.16.12-.15.13-.16.14-.15.15-.14.15-.13.16-.12.18-.11.17-.09.19-.08.18-.09.2-.07.21-.06.21,0,.22-.05.23,0,.23,0h.72l.4,0,.45,0,.48.06.5.07.55.09.59.11.61.13.56.1.5.11.45.07.39.06.34,0,.28,0h.23l.47-.66.23-.35.18-.31.07-.13,0-.13,0-.1,0-.1v-.61l-.06-.22-.06-.21-.09-.22-.11-.23-.13-.23-.13-.19-.13-.18-.14-.18-.16-.17-.16-.16-.16-.16-.17-.13-.19-.14-.13-.09-.14-.08-.15-.08-.16-.07-.33-.14-.36-.12-.39-.1-.42-.07-.46-.06Z"/><path class="cls-2" d="M190.39,56.57l-6.3,6.08.12.33.13.32.13.3.16.28.16.27.17.25.17.23.2.21.19.19.19.17.2.16.22.15.2.13.21.11.22.09.22.08.23.08.23,0,.23,0,.23,0h.49l.24,0,.26,0,.22,0,.22-.06.2-.07.21-.07.22-.09.22-.1.21-.1.22-.11.2-.13.22-.15.21-.14.21-.16.21-.16.22-.19.2-.18.22-.2.17-.18.17-.17.16-.17.14-.19.15-.19.13-.19.13-.18.11-.19.1-.19.11-.19.08-.2.09-.2.07-.19.06-.2.06-.2,0-.22,0-.23,0-.21v-.67l0-.21,0-.2-.06-.21-.07-.2-.07-.2-.1-.19-.1-.2-.12-.17-.14-.19-.15-.17-.16-.17-.11-.12-.13-.12-.13-.11-.13-.09-.16-.1-.14-.08-.16-.09L192,57l-.34-.13-.39-.13-.4-.08Zm-.2-5.26,2.8,2.91-.35.32-.34.29-.32.28-.32.28-.29.26-.27.24-.26.25-.23.23.47-.07.44-.06.4,0,.39-.05.35,0h.83l.2,0,.19,0,.17,0,.19,0,.17,0,.18,0,.16.07.17.06.16.07.14.08.15.09.14.1.14.1.13.1.13.13.13.12.22.24.2.26.19.26.16.26.14.28.13.27.1.29.09.29.06.3,0,.3v1l0,.33-.06.35-.09.35-.07.28-.1.29-.1.29-.12.29-.13.27-.14.28-.15.28-.15.26-.19.28-.17.27-.21.26-.2.26-.23.26-.21.26-.25.26-.26.24-.26.25-.27.24-.26.22-.29.22-.27.2-.29.19-.28.18-.3.16-.29.16-.3.16-.3.13-.31.13-.31.1-.32.1-.32.1-.31.07-.38.09-.37.06-.36,0H188l-.34,0-.33,0-.3-.07-.32-.09-.29-.12-.28-.13-.28-.14-.27-.17-.26-.2-.25-.22-.24-.23-.16-.17-.16-.19-.14-.2-.13-.22-.13-.23-.12-.25-.11-.24-.09-.26-.1-.27-.07-.29-.07-.3-.06-.32-.06-.32,0-.34,0-.35,0-.36-2.12,2-.49.49-.42.43-.34.37-.26.33-.13.21-.13.21-.13.23-.13.25-.12.26-.1.27-.1.28-.1.28-3.36-3.47.28-.06.27-.07.24-.09.25-.08.23-.1.22-.1.2-.11.19-.11.31-.23.36-.3.42-.38.49-.45,8.49-8.2.26-.27.26-.26.24-.26.24-.26.21-.24.22-.26.18-.25.19-.24.18-.25.14-.24.14-.25.15-.24.11-.23.1-.24.11-.24Z"/><path class="cls-2" d="M209.1,63.13l.13.19.1.2.07.2.08.2,0,.2,0,.22v.45l-.06.21-.06.2-.09.21-.1.18-.11.18-.15.17-.16.14-.17.15-.19.13-.2.1-.2.08-.2.06-.22.05h-.43l-.22,0-.21,0-.22-.07-.19-.08-.18-.1-.18-.13-.17-.14-.14-.16-.15-.17-.13-.19-.1-.2-.08-.2-.06-.21,0-.2v-.43l0-.23,0-.22.06-.2.09-.2.1-.19.13-.17.13-.16.16-.16.18-.14.19-.12.19-.11.2-.07.2-.08.22,0h.43l.22,0,.21.05.22.07.2.09.19.1.17.11.16.15L209,63ZM202.28,65l3,4.15-.52.06-.48.09-.46.11-.43.13-.2.08-.21.08-.18.07-.19.09-.17.1-.18.1-.17.1-.16.12L193,76.72l-.33.25-.35.2-.36.2-.36.19-.36.15-.37.15-.39.14-.4.1-.41.11-.4.08-.43.06-.44.06-.43,0h-.91l-.46,0L185,76.19l.52,0h.94l.43,0,.4,0,.38,0L188,76l.31-.08.3-.1.34-.13.34-.16.36-.2.38-.22.4-.25.4-.27.44-.3,8.6-6.26.48-.36.4-.33.17-.16.16-.16.13-.14.12-.14.11-.15.1-.17.12-.19.11-.22.25-.5Z"/><path class="cls-2" d="M199.13,85.12,203,83.05l-1.89-3.53-.36,0-.33,0-.32.06-.3.07-.29.07-.27.11L199,80l-.24.11-.23.15-.22.14-.19.17-.17.18-.06.1-.07.08-.06.1,0,.11,0,.11-.05.1,0,.12,0,.11,0,.23v.25l0,.27,0,.28.09.27.1.3.13.32.17.32.09.15.1.16.1.16.13.16.26.33ZM204.92,75l2.83-.55.39.46.36.43.31.39.28.36.23.32.2.29.16.24.13.21.17.36.16.34.13.35.11.34.09.33.06.32,0,.32,0,.32v.31l0,.31,0,.28-.07.31-.1.27-.12.29-.13.27-.17.28-.13.17-.16.19-.19.18-.21.18L209,83l-.26.19-.29.19-.31.17-7.86,4.33-.11.07-.13.1-.18.14-.2.18-.46.44-.58.59L197,86.28l1.93-1-.34-.16-.35-.17-.36-.16-.37-.16-.38-.17-.39-.16-.4-.17-.41-.17-.24-.32-.2-.27-.18-.25-.11-.2-.09-.16-.07-.17-.06-.17-.05-.18-.06-.17,0-.17,0-.19,0-.17,0-.19v-.56l0-.19,0-.2,0-.19,0-.2.06-.2.05-.19.06-.17.07-.19.09-.16.09-.16.08-.16.1-.14.12-.15.11-.13.13-.12.13-.12L196,78l.15-.12.16-.08.15-.1.18-.09.2-.09.19-.05.18-.06.21-.05.18,0,.21,0h.61l.21,0,.21,0,.2.06.22.06.22.07.23.1.3.13.33.17.35.21.37.24.41.26.43.3.45.33.46.37.49.38.44.36.41.31.36.27.33.23.29.19.24.14.2.12.71-.39.37-.2.31-.2.11-.09.1-.09.08-.08.07-.09.1-.16.09-.19.07-.18,0-.22,0-.22,0-.24v-.51l0-.23,0-.23-.06-.23,0-.21-.06-.22-.09-.2-.09-.2-.1-.2-.08-.15-.09-.13-.09-.14-.1-.15-.24-.26-.26-.27-.3-.27-.35-.26-.37-.26Z"/><polygon class="cls-3" points="147.73 130.19 147.72 130.43 147.7 130.66 147.69 130.9 147.64 131.12 147.6 131.35 147.54 131.56 147.48 131.78 147.41 132 147.34 132.2 147.25 132.4 147.15 132.6 147.05 132.79 146.94 132.98 146.82 133.15 146.71 133.32 146.58 133.48 146.45 133.64 146.3 133.78 146.16 133.93 146.01 134.06 145.87 134.17 145.71 134.29 145.55 134.4 145.39 134.49 145.22 134.58 145.05 134.65 144.88 134.72 144.7 134.76 144.53 134.81 144.36 134.84 144.18 134.87 144.01 134.87 114.3 134.87 114.12 134.87 113.93 134.84 113.74 134.81 113.57 134.76 113.38 134.72 113.21 134.65 113.04 134.58 112.88 134.49 112.7 134.4 112.55 134.29 112.39 134.17 112.23 134.06 112.07 133.93 111.93 133.78 111.8 133.64 111.65 133.48 111.52 133.32 111.41 133.15 111.29 132.98 111.18 132.79 111.08 132.6 110.97 132.4 110.89 132.2 110.82 132 110.74 131.78 110.67 131.56 110.63 131.35 110.59 131.12 110.54 130.9 110.51 130.66 110.5 130.43 110.5 130.19 110.5 129.95 110.51 129.72 110.54 129.49 110.59 129.26 110.63 129.04 110.69 128.82 110.74 128.61 110.83 128.39 110.9 128.19 110.99 127.99 111.09 127.79 111.21 127.6 111.31 127.41 111.44 127.24 111.55 127.07 111.68 126.91 111.83 126.75 111.97 126.61 112.11 126.46 112.26 126.33 112.42 126.2 112.58 126.09 112.73 125.99 112.91 125.9 113.06 125.81 113.24 125.73 113.41 125.67 113.58 125.61 113.77 125.57 113.94 125.54 114.12 125.52 114.3 125.52 144.01 125.52 144.18 125.52 144.36 125.54 144.53 125.57 144.7 125.61 144.88 125.67 145.05 125.73 145.22 125.81 145.39 125.9 145.55 125.99 145.71 126.09 145.87 126.2 146.01 126.33 146.16 126.46 146.3 126.61 146.45 126.75 146.58 126.91 146.71 127.07 146.82 127.24 146.94 127.41 147.05 127.6 147.15 127.79 147.25 127.99 147.34 128.19 147.41 128.39 147.48 128.61 147.54 128.82 147.6 129.04 147.64 129.26 147.69 129.49 147.7 129.72 147.72 129.95 147.73 130.19"/><polygon class="cls-3" points="145.74 141.84 145.74 142.09 145.73 142.32 145.7 142.56 145.67 142.79 145.61 143.02 145.55 143.25 145.5 143.47 145.42 143.69 145.34 143.89 145.25 144.1 145.16 144.29 145.06 144.49 144.95 144.68 144.83 144.85 144.72 145.03 144.59 145.2 144.46 145.36 144.33 145.5 144.18 145.65 144.04 145.78 143.9 145.91 143.75 146.02 143.59 146.12 143.43 146.21 143.29 146.29 143.13 146.38 142.97 146.44 142.81 146.5 142.66 146.54 142.5 146.57 142.34 146.58 142.18 146.58 116.44 146.58 116.28 146.58 116.11 146.57 115.95 146.54 115.79 146.5 115.63 146.44 115.47 146.38 115.31 146.29 115.16 146.21 115.01 146.12 114.85 146.02 114.71 145.91 114.56 145.78 114.43 145.65 114.3 145.5 114.17 145.36 114.05 145.2 113.92 145.03 113.81 144.85 113.7 144.68 113.6 144.49 113.5 144.29 113.41 144.1 113.32 143.89 113.25 143.69 113.18 143.47 113.12 143.25 113.08 143.02 113.04 142.79 112.99 142.56 112.98 142.32 112.96 142.09 112.95 141.84 112.96 141.6 112.98 141.37 113.01 141.13 113.04 140.9 113.08 140.69 113.14 140.47 113.21 140.25 113.28 140.04 113.35 139.84 113.45 139.63 113.54 139.43 113.64 139.25 113.76 139.06 113.87 138.89 113.99 138.71 114.12 138.55 114.25 138.4 114.39 138.25 114.53 138.11 114.68 137.98 114.82 137.85 114.98 137.73 115.14 137.63 115.3 137.53 115.46 137.46 115.62 137.37 115.77 137.31 115.93 137.26 116.11 137.21 116.27 137.19 116.44 137.17 116.6 137.16 141.95 137.16 142.11 137.17 142.28 137.19 142.44 137.21 142.61 137.26 142.77 137.31 142.94 137.37 143.1 137.46 143.28 137.53 143.43 137.63 143.59 137.73 143.75 137.85 143.91 137.98 144.07 138.11 144.21 138.25 144.36 138.4 144.5 138.55 144.63 138.71 144.76 138.89 144.89 139.06 145 139.25 145.11 139.43 145.22 139.63 145.31 139.84 145.39 140.04 145.48 140.25 145.54 140.47 145.61 140.69 145.65 140.9 145.7 141.13 145.73 141.37 145.74 141.6 145.74 141.84"/><polygon class="cls-3" points="143.45 152.93 143.45 153.17 143.42 153.4 143.39 153.63 143.35 153.86 143.3 154.08 143.23 154.29 143.16 154.51 143.07 154.73 142.99 154.93 142.89 155.13 142.78 155.33 142.67 155.52 142.56 155.71 142.43 155.88 142.29 156.05 142.15 156.21 142.01 156.37 141.86 156.51 141.72 156.66 141.56 156.79 141.42 156.92 141.26 157.03 141.1 157.13 140.94 157.22 140.78 157.31 140.62 157.39 140.48 157.45 140.32 157.51 140.16 157.55 140.02 157.58 139.87 157.59 139.73 157.59 118.34 157.59 118.2 157.59 118.05 157.58 117.91 157.55 117.75 157.51 117.61 157.45 117.45 157.39 117.29 157.31 117.13 157.22 116.98 157.13 116.83 157.03 116.67 156.92 116.52 156.79 116.38 156.66 116.24 156.51 116.09 156.37 115.95 156.21 115.82 156.05 115.69 155.88 115.57 155.71 115.46 155.52 115.34 155.33 115.24 155.13 115.14 154.93 115.05 154.73 114.97 154.51 114.91 154.29 114.84 154.08 114.79 153.86 114.75 153.63 114.72 153.4 114.71 153.17 114.69 152.93 114.71 152.68 114.72 152.45 114.74 152.2 114.78 151.97 114.82 151.74 114.88 151.51 114.94 151.3 115.01 151.08 115.1 150.88 115.18 150.66 115.27 150.47 115.37 150.27 115.49 150.09 115.6 149.91 115.72 149.74 115.83 149.57 115.96 149.41 116.09 149.26 116.22 149.12 116.36 148.99 116.5 148.86 116.64 148.75 116.78 148.64 116.93 148.54 117.09 148.46 117.23 148.38 117.37 148.33 117.52 148.27 117.68 148.23 117.82 148.2 117.97 148.18 118.09 148.17 139.89 148.25 140.03 148.25 140.18 148.28 140.32 148.31 140.47 148.34 140.62 148.4 140.77 148.46 140.93 148.53 141.07 148.62 141.23 148.7 141.37 148.82 141.53 148.92 141.68 149.05 141.82 149.18 141.96 149.31 142.09 149.45 142.24 149.61 142.37 149.77 142.48 149.94 142.6 150.11 142.71 150.3 142.83 150.49 142.93 150.69 143.02 150.89 143.1 151.09 143.18 151.31 143.25 151.53 143.3 151.74 143.36 151.97 143.39 152.2 143.42 152.45 143.45 152.68 143.45 152.93"/><polygon class="cls-3" points="85.1 130.28 85.35 130.28 85.59 130.29 85.84 130.32 86.07 130.35 86.3 130.41 86.52 130.48 86.73 130.56 86.95 130.64 87.15 130.74 87.35 130.86 87.54 130.97 87.73 131.1 87.9 131.23 88.07 131.39 88.23 131.53 88.37 131.69 88.53 131.87 88.66 132.04 88.79 132.23 88.92 132.41 89.04 132.62 89.14 132.8 89.24 133.02 89.33 133.22 89.4 133.44 89.47 133.64 89.53 133.85 89.58 134.09 89.63 134.3 89.66 134.52 89.69 134.75 89.7 134.97 89.74 135.79 89.83 136.58 89.96 137.37 90.13 138.14 90.35 138.89 90.59 139.61 90.88 140.31 91.2 141 91.56 141.68 91.93 142.32 92.37 142.95 92.81 143.54 93.3 144.12 93.81 144.68 94.36 145.2 94.92 145.7 95.51 146.18 96.13 146.63 96.78 147.04 97.44 147.43 98.12 147.79 98.82 148.13 99.56 148.43 100.31 148.7 101.07 148.93 101.85 149.13 102.64 149.31 103.45 149.45 104.27 149.55 105.11 149.61 105.96 149.64 106.81 149.62 107.21 149.61 107.6 149.61 107.99 149.59 108.39 149.58 108.57 149.58 108.73 149.59 108.9 149.61 109.09 149.65 109.26 149.7 109.43 149.74 109.62 149.81 109.79 149.88 109.98 149.97 110.15 150.06 110.34 150.16 110.51 150.27 110.69 150.39 110.86 150.5 111.03 150.65 111.19 150.79 111.35 150.94 111.49 151.09 111.65 151.25 111.78 151.43 111.93 151.6 112.04 151.79 112.16 151.97 112.27 152.16 112.37 152.36 112.46 152.56 112.53 152.77 112.6 152.98 112.65 153.2 112.69 153.43 112.72 153.65 112.73 153.88 112.73 154.11 112.72 154.34 112.69 154.57 112.65 154.8 112.59 155.01 112.53 155.23 112.44 155.45 112.36 155.65 112.26 155.85 112.14 156.05 112.03 156.24 111.9 156.43 111.77 156.6 111.62 156.77 111.47 156.93 111.32 157.09 111.15 157.25 110.99 157.38 110.82 157.52 110.64 157.65 110.47 157.77 110.28 157.87 110.11 157.97 109.92 158.07 109.75 158.16 109.56 158.23 109.39 158.29 109.2 158.34 109.03 158.39 108.86 158.42 108.7 158.44 108.53 158.44 108.18 158.47 107.85 158.52 107.53 158.55 107.18 158.57 105.76 158.57 104.37 158.53 103 158.43 101.66 158.29 100.35 158.09 99.08 157.82 97.83 157.52 96.62 157.18 95.44 156.77 94.3 156.31 93.19 155.82 92.12 155.27 91.1 154.68 90.1 154.03 89.15 153.34 88.25 152.61 87.38 151.83 86.56 150.99 85.78 150.13 85.06 149.21 84.37 148.25 83.75 147.25 83.16 146.19 82.62 145.1 82.15 143.97 81.72 142.79 81.36 141.57 81.04 140.31 80.76 139.02 80.56 137.68 80.42 136.29 80.35 134.88 80.33 134.63 80.35 134.4 80.38 134.17 80.4 133.96 80.46 133.73 80.52 133.51 80.59 133.31 80.68 133.11 80.76 132.9 80.86 132.7 80.98 132.51 81.1 132.33 81.24 132.16 81.37 131.98 81.53 131.82 81.69 131.66 81.84 131.51 82.02 131.36 82.2 131.23 82.39 131.1 82.59 130.99 82.8 130.87 83 130.77 83.22 130.69 83.43 130.6 83.66 130.53 83.89 130.45 84.12 130.4 84.37 130.35 84.61 130.32 84.86 130.29 85.1 130.28"/><polygon class="cls-3" points="84.57 128.64 84.78 128.62 85 128.59 85.22 128.57 85.43 128.52 85.65 128.47 85.85 128.39 86.05 128.32 86.27 128.23 86.46 128.13 86.66 128.03 86.85 127.92 87.03 127.8 87.22 127.67 87.39 127.53 87.57 127.38 87.73 127.24 87.88 127.08 88.04 126.91 88.17 126.73 88.32 126.56 88.43 126.38 88.55 126.19 88.66 125.99 88.75 125.78 88.84 125.58 88.91 125.38 88.98 125.16 89.02 124.95 89.07 124.73 89.09 124.5 89.11 124.28 89.11 124.05 89.09 123.23 89.14 122.44 89.21 121.66 89.33 120.9 89.47 120.15 89.66 119.43 89.89 118.72 90.15 118.04 90.45 117.38 90.77 116.73 91.14 116.11 91.53 115.52 91.96 114.94 92.42 114.38 92.92 113.86 93.43 113.36 93.98 112.88 94.56 112.42 95.16 112 95.78 111.6 96.45 111.23 97.12 110.88 97.83 110.56 98.55 110.28 99.3 110 100.08 109.77 100.86 109.57 101.68 109.4 102.5 109.27 103.35 109.15 104.22 109.08 105.11 109.02 105.61 109.01 106.1 109.01 106.61 109.01 107.11 109.04 108.53 108.98 109.91 108.88 111.26 108.72 112.58 108.52 113.86 108.27 115.11 107.98 116.32 107.64 117.5 107.25 118.64 106.82 119.75 106.34 120.82 105.82 121.84 105.26 122.84 104.64 123.79 103.99 124.7 103.28 125.58 102.55 126.4 101.76 127.19 100.92 127.94 100.06 128.65 99.13 129.31 98.18 129.91 97.17 130.49 96.14 131.02 95.04 131.5 93.92 131.93 92.75 132.32 91.54 132.67 90.3 132.97 89 133.22 87.67 133.4 86.31 133.56 84.89 133.57 84.56 133.56 84.23 133.56 83.9 133.57 83.55 133.59 83.38 133.57 83.21 133.56 83.03 133.55 82.86 133.5 82.67 133.46 82.49 133.42 82.3 133.34 82.11 133.27 81.92 133.2 81.74 133.1 81.55 133.01 81.36 132.9 81.17 132.78 80.99 132.65 80.81 132.52 80.63 132.39 80.45 132.24 80.3 132.09 80.14 131.92 79.98 131.76 79.83 131.59 79.69 131.4 79.56 131.21 79.44 131.01 79.33 130.81 79.23 130.61 79.14 130.39 79.06 130.17 78.98 129.94 78.94 129.71 78.9 129.48 78.87 129.25 78.87 129.03 78.87 128.8 78.88 128.59 78.91 128.36 78.95 128.14 79.01 127.94 79.07 127.72 79.16 127.52 79.24 127.32 79.33 127.13 79.44 126.94 79.55 126.76 79.67 126.58 79.81 126.41 79.94 126.24 80.08 126.08 80.22 125.94 80.38 125.79 80.53 125.66 80.7 125.53 80.86 125.4 81.03 125.3 81.19 125.2 81.36 125.1 81.53 125.01 81.71 124.94 81.88 124.88 82.05 124.83 82.23 124.8 82.39 124.77 82.56 124.74 82.72 124.71 83.12 124.68 83.51 124.65 83.9 124.62 84.3 124.55 85.09 124.44 85.87 124.29 86.64 124.13 87.39 123.93 88.12 123.7 88.86 123.44 89.56 123.15 90.25 122.84 90.93 122.49 91.59 122.13 92.24 121.74 92.86 121.32 93.47 120.89 94.06 120.43 94.62 119.94 95.16 119.44 95.67 118.92 96.16 118.37 96.63 117.81 97.07 117.23 97.49 116.64 97.86 116.02 98.22 115.4 98.56 114.75 98.86 114.09 99.12 113.42 99.35 112.73 99.55 112.04 99.72 111.33 99.85 110.61 99.95 109.89 100.01 109.2 100.06 108.51 100.1 107.83 100.14 107.14 100.19 106.45 100.24 105.74 100.27 105.05 100.31 104.34 100.33 103.03 100.43 101.74 100.59 100.47 100.79 99.21 101.05 97.99 101.35 96.78 101.71 95.61 102.12 94.46 102.56 93.35 103.05 92.25 103.59 91.2 104.18 90.19 104.8 89.21 105.47 88.27 106.18 87.37 106.92 86.52 107.71 85.69 108.53 84.93 109.38 84.21 110.28 83.55 111.21 82.93 112.16 82.35 113.16 81.83 114.18 81.38 115.23 80.98 116.31 80.63 117.42 80.36 118.55 80.14 119.72 79.99 120.9 79.9 122.11 79.87 123.33 79.93 124.59 79.94 124.75 79.97 124.91 80.01 125.06 80.06 125.24 80.11 125.41 80.19 125.58 80.26 125.75 80.36 125.93 80.45 126.1 80.55 126.27 80.66 126.45 80.79 126.62 80.92 126.78 81.05 126.95 81.2 127.11 81.36 127.27 81.51 127.41 81.67 127.56 81.84 127.7 82.03 127.83 82.2 127.95 82.41 128.06 82.59 128.18 82.8 128.26 83.01 128.35 83.22 128.44 83.43 128.49 83.66 128.55 83.88 128.59 84.11 128.62 84.34 128.64 84.57 128.64"/><polygon class="cls-2" points="128.92 49.26 133.83 64.33 149.52 64.33 136.85 73.59 141.68 88.55 128.92 79.29 116.16 88.55 121.08 73.59 108.32 64.33 124.09 64.33 128.92 49.26"/><polygon class="cls-3" points="145.74 117.39 145.74 117.64 145.73 117.89 145.7 118.12 145.67 118.36 145.61 118.59 145.55 118.81 145.5 119.02 145.42 119.24 145.34 119.46 145.25 119.66 145.16 119.86 145.06 120.05 144.95 120.23 144.83 120.42 144.72 120.59 144.59 120.75 144.46 120.91 144.33 121.07 144.18 121.2 144.04 121.34 143.9 121.46 143.75 121.58 143.59 121.69 143.43 121.78 143.29 121.86 143.13 121.94 142.97 122.01 142.81 122.05 142.66 122.09 142.5 122.12 142.34 122.15 142.18 122.15 116.44 122.15 116.28 122.15 116.11 122.12 115.95 122.09 115.79 122.05 115.63 122.01 115.47 121.94 115.31 121.86 115.16 121.78 115.01 121.69 114.85 121.58 114.71 121.46 114.56 121.34 114.43 121.2 114.3 121.07 114.17 120.91 114.05 120.75 113.92 120.59 113.81 120.42 113.7 120.23 113.6 120.05 113.5 119.86 113.41 119.66 113.32 119.46 113.25 119.24 113.18 119.02 113.12 118.81 113.08 118.59 113.04 118.36 112.99 118.12 112.98 117.89 112.96 117.64 112.95 117.39 112.96 117.17 112.98 116.93 113.01 116.7 113.04 116.47 113.08 116.24 113.14 116.03 113.21 115.81 113.28 115.61 113.35 115.39 113.45 115.19 113.54 115 113.64 114.81 113.76 114.63 113.87 114.44 113.99 114.28 114.12 114.11 114.25 113.97 114.39 113.81 114.53 113.68 114.68 113.53 114.82 113.42 114.98 113.3 115.14 113.2 115.3 113.1 115.46 113.01 115.62 112.94 115.77 112.88 115.93 112.83 116.11 112.78 116.27 112.75 116.44 112.74 116.6 112.72 141.95 112.72 142.11 112.74 142.28 112.75 142.44 112.78 142.61 112.83 142.77 112.88 142.94 112.94 143.1 113.01 143.28 113.1 143.43 113.2 143.59 113.3 143.75 113.42 143.91 113.53 144.07 113.68 144.21 113.81 144.36 113.97 144.5 114.11 144.63 114.28 144.76 114.44 144.89 114.63 145 114.81 145.11 115 145.22 115.19 145.31 115.39 145.39 115.61 145.48 115.81 145.54 116.03 145.61 116.24 145.65 116.47 145.7 116.7 145.73 116.93 145.74 117.17 145.74 117.39"/><polygon class="cls-4" points="29.06 117.87 29.34 117.87 29.6 117.9 29.86 117.93 30.11 117.97 30.37 118.03 30.62 118.1 30.86 118.19 31.11 118.28 31.34 118.39 31.56 118.5 31.79 118.62 31.99 118.77 32.2 118.91 32.39 119.07 32.59 119.23 32.77 119.4 32.94 119.59 33.11 119.77 33.27 119.97 33.42 120.18 33.55 120.39 33.67 120.61 33.79 120.84 33.89 121.07 33.99 121.32 34.08 121.56 34.14 121.81 34.19 122.05 34.25 122.31 34.28 122.57 34.3 122.84 34.31 123.12 34.3 123.38 34.28 123.65 34.25 123.91 34.19 124.17 34.14 124.43 34.08 124.67 33.99 124.92 33.89 125.15 33.79 125.38 33.67 125.61 33.55 125.83 33.42 126.04 33.27 126.25 33.11 126.45 32.94 126.63 32.77 126.82 32.59 127 32.39 127.17 32.2 127.31 31.99 127.46 31.79 127.6 31.56 127.73 31.34 127.84 31.11 127.95 30.86 128.05 30.62 128.12 30.37 128.19 30.11 128.25 29.86 128.29 29.6 128.34 29.34 128.35 29.06 128.36 28.79 128.35 28.53 128.34 28.26 128.29 28.01 128.25 27.75 128.19 27.51 128.12 27.26 128.05 27.02 127.95 26.79 127.84 26.55 127.73 26.34 127.6 26.12 127.46 25.92 127.31 25.72 127.17 25.53 127 25.36 126.82 25.19 126.63 25.01 126.45 24.85 126.25 24.71 126.04 24.58 125.83 24.45 125.61 24.34 125.38 24.23 125.15 24.13 124.92 24.05 124.67 23.98 124.43 23.92 124.17 23.87 123.91 23.84 123.65 23.82 123.38 23.82 123.12 23.82 122.84 23.84 122.57 23.87 122.31 23.92 122.05 23.98 121.81 24.05 121.56 24.13 121.32 24.23 121.07 24.34 120.84 24.45 120.61 24.58 120.39 24.71 120.18 24.85 119.97 25.01 119.77 25.19 119.59 25.36 119.4 25.53 119.23 25.72 119.07 25.92 118.91 26.12 118.77 26.34 118.62 26.55 118.5 26.79 118.39 27.02 118.28 27.26 118.19 27.51 118.1 27.75 118.03 28.01 117.97 28.26 117.93 28.53 117.9 28.79 117.87 29.06 117.87"/><polygon class="cls-4" points="215.89 117.87 216.16 117.87 216.42 117.9 216.68 117.93 216.94 117.97 217.2 118.03 217.45 118.1 217.69 118.19 217.94 118.28 218.17 118.39 218.38 118.5 218.62 118.62 218.82 118.77 219.03 118.91 219.22 119.07 219.42 119.23 219.59 119.4 219.77 119.59 219.94 119.77 220.1 119.97 220.24 120.18 220.37 120.39 220.5 120.61 220.62 120.84 220.72 121.07 220.82 121.32 220.91 121.56 220.96 121.81 221.04 122.05 221.08 122.31 221.11 122.57 221.12 122.84 221.14 123.12 221.12 123.38 221.11 123.65 221.08 123.91 221.04 124.17 220.96 124.43 220.91 124.67 220.82 124.92 220.72 125.15 220.62 125.38 220.5 125.61 220.37 125.83 220.24 126.04 220.1 126.25 219.94 126.45 219.77 126.63 219.59 126.82 219.42 127 219.22 127.17 219.03 127.31 218.82 127.46 218.62 127.6 218.38 127.73 218.17 127.84 217.94 127.95 217.69 128.05 217.45 128.12 217.2 128.19 216.94 128.25 216.68 128.29 216.42 128.34 216.16 128.35 215.89 128.36 215.62 128.35 215.36 128.34 215.1 128.29 214.84 128.25 214.58 128.19 214.33 128.12 214.09 128.05 213.84 127.95 213.61 127.84 213.38 127.73 213.17 127.6 212.95 127.46 212.75 127.31 212.55 127.17 212.36 127 212.19 126.82 212.01 126.63 211.84 126.45 211.68 126.25 211.54 126.04 211.41 125.83 211.28 125.61 211.16 125.38 211.06 125.15 210.96 124.92 210.88 124.67 210.8 124.43 210.75 124.17 210.7 123.91 210.67 123.65 210.64 123.38 210.64 123.12 210.64 122.84 210.67 122.57 210.7 122.31 210.75 122.05 210.8 121.81 210.88 121.56 210.96 121.32 211.06 121.07 211.16 120.84 211.28 120.61 211.41 120.39 211.54 120.18 211.68 119.97 211.84 119.77 212.01 119.59 212.19 119.4 212.36 119.23 212.55 119.07 212.75 118.91 212.95 118.77 213.17 118.62 213.38 118.5 213.61 118.39 213.84 118.28 214.09 118.19 214.33 118.1 214.58 118.03 214.84 117.97 215.1 117.93 215.36 117.9 215.62 117.87 215.89 117.87"/><text class="cls-5" transform="translate(77.84 221.1) rotate(19)">2</text><text class="cls-5" transform="translate(149.66 227.43) rotate(-19)">7</text><text class="cls-6" transform="translate(101.05 228.67) rotate(8)">0</text><text class="cls-6" transform="translate(125.58 230.99) rotate(-8)">1</text><text class="cls-7" transform="translate(79.59 189.7) scale(1.03 1)">Különdíj</text></g></g></svg>