<?xml version="1.0" encoding="utf-8"?>
<!-- Generator: Adobe Illustrator 21.0.0, SVG Export Plug-In . SVG Version: 6.00 Build 0)  -->
<svg version="1.1" id="Layer_1" xmlns="http://www.w3.org/2000/svg" xmlns:xlink="http://www.w3.org/1999/xlink" x="0px" y="0px"
	 viewBox="0 0 932 970" style="enable-background:new 0 0 932 970;" xml:space="preserve">
<style type="text/css">
	.st0{fill:#FFFFFF;}
	.st1{fill:#CAA777;}
	.st2{fill:#FFD15C;}
	.st3{fill:#C89618;}
	.st4{fill:#B82626;}
	.st5{fill:#DB2626;}
	.st6{fill:#E03834;}
	.st7{fill:#A72121;}
</style>
<circle class="st0" cx="464" cy="487.4" r="447.1"/>
<path class="st1" d="M433.3,197.4c-18.3,24.7-37.1,59.6-53.5,100.5c27.5,2.5,53.7,6.3,78.7,11.3c11.4-40,17.3-76.5,17.6-104.5
	C476.6,147.9,465.2,154.2,433.3,197.4z"/>
<path class="st2" d="M358.2,161c-42.8,0.8-91.2,5.7-138.9,14c-46.8,8.1-92.2,20.8-108.5,71.1c-12.1,37.5,2.2,76.3,28.9,103.9
	c52.2,47.9,117,79,171.4,104.2c-5.3-69.7,28.7-170.5,62.3-233.1l17.8-30c6.6-10,13.7-19.8,21.8-28.7
	C396.4,161.1,378,160.6,358.2,161z"/>
<path class="st3" d="M256.4,266c-51.3-10.1-100.8-15.9-146.2-17.7c-10.9,36.9,3.4,74.7,29.5,101.8c52.2,47.9,117,79,171.4,104.2
	c-3.7-48.4,11.6-111.9,32.6-167.1C316,279.1,286.8,271.9,256.4,266z"/>
<path class="st4" d="M463.8,68.1c-77.9,0-153.7,21.4-219.9,62.4c-10.6,1.5-21.1,3.2-31.7,5c-62.9,10.9-118.3,32.6-139.5,98.4
	c-10.1,31.3-7.5,63.5,4.3,92.6C55.9,377.1,45,431.9,45,486.8c0,231.2,187.5,418.7,418.7,418.7c115.6,0,220.3-46.9,296.1-122.6
	c75.8-75.8,122.6-180.5,122.6-296.1C882.5,255.6,695,68.1,463.8,68.1z M110.8,246.1c16.2-50.3,61.7-63,108.5-71.1
	c47.8-8.3,96.1-13.2,138.9-14c19.7-0.4,38.2,0.1,54.8,1.5c-8.1,8.9-15.2,18.6-21.8,28.7c-50.3-2.3-129.5-0.5-231.2,27.4
	c52-5.2,156.4-8.4,213.4,2.6c-33.7,62.6-67.7,163.4-62.3,233.1C256.6,429,191.9,397.9,139.7,350C113.1,322.4,98.7,283.6,110.8,246.1
	z M615.4,575.6c17,9,29.4,23.6,32.8,42.9c2.7,15.2-0.9,31.9-11.1,43.7c-11.7,13.6-33.1,19.6-47.7,7c-11.1-9.6-12.5-20.9-13.9-34.3
	c-13.7-132.6-93.8-209.7-218.2-251.2c3.4-16.9,8.1-35,14.1-53.8c139.3,10.9,262.7,59.2,324.2,192.5c-26.6-2.2-54.1,3.2-79.1,17.2
	C601.5,546.4,600.5,567.7,615.4,575.6z M501.1,650.6c-4.1-1.7-8.4-2-12.4-1.1c-8.4,1.6-16.5,4.1-24.1,7.3
	c3.1-88.4-27.7-141.9-109-181.7c-6.7-6-5-40.3-4.2-50.9c106.2,37.6,172.3,101,184.1,214.8c1,9.6,2,18.9,3.4,28
	c2.4,35.4-2.5,53.8-9.8,60.6c-4.1,3.8-10.8-3.2-13.2-6.2c-7.9-10-11.8-26.7-4.1-44.5C516.1,666.7,511.3,655,501.1,650.6z M455,300.8
	c-22.1-4.5-45.3-7.8-69.6-10c14.4-36.2,31.1-67.1,47.3-88.9c28.3-38.2,38.4-43.8,37.9,6.5C470.3,233.2,465,265.4,455,300.8z
	 M332.5,835.3c-26.3-20.4-29.4-56.7-11-83.5c4.1-6,9.2-11.3,15.1-15.7c4.5,27.4,27.3,53.9,56.2,55.5c3.2,16.5,9.7,31.6,18.7,44.7
	C388.5,854.9,355.4,853.1,332.5,835.3z M422.2,686.8c-16.1,17.7-26.9,40.4-30.3,64.1c-14.2-5.7-19-24.8-13.2-38.3
	c6.5-15.3-7.3-31.1-23.1-27.4c-28.3,5.5-51.8,21.9-67,44c-16.8,24.5-22.9,55.5-15.8,84.4C156.8,745.7,85.3,621.8,85.3,486.8
	c0-39.9,6-79,18.3-116.9c44.9,52.7,136.3,95.7,199.1,124.7C406.3,542.6,433.5,571.2,422.2,686.8z M526.4,847.9
	c-22,4.1-43.6-1.1-60.6-12.8c-47.1-32.4-46.7-103,1.7-134.5c1.4,28.7,19.4,60.5,49,67.3c24.3,5.6,43.3-8.4,53-29.6
	c6.6,9.8,14.3,18.4,22.9,26C594.5,804.6,566.3,840.5,526.4,847.9z M612.8,834.8c9.2-14,15.5-29.8,18.3-46.5c15,6.2,31,9.7,47.2,10.4
	C657.9,812.7,635.9,824.9,612.8,834.8z M778.8,685.8c-3.1,11.4-8,21.8-14.4,31c-25.7,33.5-64,49.7-105.9,38.5
	c-21.9-5.9-41.8-19.3-55.4-39c56.1,4,94.1-51.8,84.7-104.5c-3-16.9-10.6-33.5-23.1-47.7C735.1,550,797.8,614.8,778.8,685.8z
	 M817.1,622.6c-10.8-37.8-37.2-69.5-72.7-86.8c-44.1-119.5-130-191.9-250.4-225.6c10.7-38.1,16.2-73.5,16.5-101.6
	c0.3-25.4-4.5-65-32.9-74.7c-26.9-9.3-65.9-13.4-110.6-13.1c30.8-8.1,63.2-12.4,96.6-12.4c209,0,378.5,169.4,378.5,378.5
	C842.2,534.7,833.3,580.5,817.1,622.6z"/>
<path class="st5" d="M709.4,565.5c-14.4-3.9-29.7-4.5-44.7-1.5c12.5,14.2,20.1,30.8,23.1,47.7c9.4,52.7-28.6,108.5-84.7,104.5
	c13.6,19.8,33.5,33.2,55.4,39c52.4,14,106.3-17,120.3-69.4c6.5-24.3,3.8-51.1-9.8-74.6C755.5,587.7,733.7,572,709.4,565.5z"/>
<path class="st6" d="M664.7,564c12.5,14.2,20.1,30.8,23.1,47.7c9.4,52.7-28.6,108.5-84.7,104.5c13.6,19.8,33.5,33.2,55.4,39
	c15.8,4.2,31.8,4.4,46.7,1c9.1-20.6,14.3-44.4,14.3-69.6C719.6,634.8,697.6,589.3,664.7,564z"/>
<path class="st5" d="M569.6,738.2c-9.7,21.2-28.8,35.2-53,29.6c-29.6-6.8-47.6-38.6-49-67.3c-27.6,18-41.3,50.7-35.4,82.6
	c3.9,21.1,16.1,39.8,33.7,51.9c17,11.7,38.6,16.9,60.6,12.8c39.9-7.4,68.1-43.2,66-83.7C583.9,756.7,576.2,748,569.6,738.2z"/>
<path class="st6" d="M516.5,767.8c-29.6-6.8-47.5-38.5-49-67.2c-0.1,2-0.1,4-0.1,6.1c0,62.6,32,115.9,76.7,135.8
	c30.2-13.2,50-44.1,48.3-78.3c-8.5-7.5-16.2-16.2-22.9-26C559.8,759.4,540.8,773.4,516.5,767.8z"/>
<path class="st5" d="M336.7,736.2c-5.9,4.4-11,9.7-15.1,15.7c-18.4,26.8-15.3,63.1,11,83.5c22.9,17.8,56,19.6,79,1.1
	c-8.9-13.1-15.4-28.2-18.7-44.7C364,790.1,341.2,763.6,336.7,736.2z"/>
<path class="st6" d="M336.7,736.2c0.8,46.1,19.1,86.9,46.8,112.5c10-1.6,19.7-5.6,28.1-12.3c-8.9-13.1-15.4-28.2-18.7-44.7
	C364,790.1,341.2,763.6,336.7,736.2z"/>
<path class="st5" d="M535.5,639c-11.8-113.8-77.9-177.2-184.1-214.8c-0.8,10.6-2.5,44.9,4.2,50.9c81.2,39.8,112.1,93.3,109,181.7
	c7.6-3.2,15.7-5.7,24.1-7.3c4-0.9,8.3-0.7,12.4,1.1c10.2,4.3,15,16.1,10.6,26.3c-7.6,17.8-3.8,34.5,4.1,44.5c2.4,3,9.1,10,13.2,6.2
	c7.3-6.8,12.2-25.2,9.8-60.6C537.5,657.9,536.5,648.6,535.5,639z"/>
<path class="st6" d="M355.6,475.1c8,3.9,15.6,8,22.7,12.3c-8.3-5.4-16.5-10.4-24.6-15.2C354.2,473.4,354.8,474.4,355.6,475.1z"/>
<path class="st6" d="M535.5,639c-0.9-8.7-2.1-17-3.6-25.1c-43.5-43.8-88.3-81.5-132-111.9c48.3,36.8,67.1,84.9,64.6,154.9
	c7.6-3.2,15.7-5.7,24.1-7.3c4-0.9,8.3-0.7,12.4,1.1c10.2,4.3,15,16.1,10.6,26.3c-7.6,17.8-3.8,34.5,4.1,44.5c2.4,3,9.1,10,13.2,6.2
	c7.3-6.8,12.2-25.2,9.8-60.6C537.5,657.9,536.5,648.6,535.5,639z"/>
<path class="st5" d="M371.3,329.9c-6,18.8-10.7,36.9-14.1,53.8c124.5,41.5,204.5,118.5,218.2,251.2c1.4,13.4,2.8,24.7,13.9,34.3
	c14.6,12.6,36,6.6,47.7-7c10.2-11.8,13.8-28.5,11.1-43.7c-3.4-19.3-15.9-33.9-32.8-42.9c-14.8-7.9-13.9-29.2,1.1-36.1
	c25-14,52.5-19.4,79.1-17.2C634,389.1,510.6,340.8,371.3,329.9z"/>
<path class="st6" d="M357.3,383.8c124.4,41.5,204.5,118.5,218.2,251.1c1.4,13.4,2.8,24.7,13.9,34.3c14.6,12.6,36,6.6,47.7-7
	c10.2-11.8,13.8-28.5,11.1-43.7c-3.4-19.3-15.9-33.9-32.8-42.9c-14.8-7.9-13.9-29.2,1.1-36.1c25-14,52.5-19.4,79.1-17.2
	c-0.9-1.8-1.7-3.7-2.6-5.5C571.1,436.7,447.8,390,357.3,383.8z"/>
<path class="st7" d="M69.7,345.1c7.6,14.9,17.5,28.6,29.1,40.9c1.5-5.4,3.1-10.8,4.8-16.1c-11.6-13.6-20.5-28.3-26.7-43.5
	C74.4,332.6,72,338.8,69.7,345.1z"/>
<path class="st7" d="M277.4,111.8c-11.5,5.7-22.7,12-33.6,18.7c40.7-5.8,82.2-9.5,123.3-9.7c21.1-5.5,42.9-9.3,65.2-11.1
	C382.7,103.7,327.2,106.4,277.4,111.8z"/>
</svg>
